<?xml version="1.0" encoding="UTF-8" standalone="no"?>
<!-- Created with Inkscape (http://www.inkscape.org/) -->

<svg
   width="7.4083333mm"
   height="6.8657308mm"
   viewBox="0 0 7.4083335 6.8657308"
   version="1.1"
   id="svg1385"
   xmlns="http://www.w3.org/2000/svg"
   xmlns:svg="http://www.w3.org/2000/svg">
  <defs
     id="defs1382" />
  <g
     id="layer1"
     transform="translate(-88.664434,-124.52722)">
    <path
       style="fill:#cd5d12;fill-opacity:1;stroke-width:0.999999"
       d="M 6.0507812,0 4.0996094,0.20117188 C 3.0662765,0.4344947 2.2503906,0.89961565 1.6503906,1.5996094 0.58372484,2.5662865 0.05078125,4.0333354 0.05078125,6 v 13.951172 c 0,1.166664 0.18216104,2.166664 0.54882813,3 l 1.05078122,1.449219 c 0.6,0.666683 1.4158859,1.116286 2.4492188,1.349609 l 1.9511718,0.199219 H 22.050781 c 1.633341,0 2.931793,-0.348809 3.898438,-1.048828 l 0.550781,-0.5 1,-1.451172 c 0.366665,-0.833336 0.550781,-1.833336 0.550781,-3 V 6 C 28.050781,4.0333354 27.53334,2.5662865 26.5,1.5996094 25.500013,0.53295111 24.017443,0 22.050781,0 Z"
       transform="matrix(0.26458333,0,0,0.26458333,88.650998,124.52722)"
       id="path280" />
    <path
       style="fill:#fa8132;fill-opacity:1;stroke-width:0.999999"
       d="M 6,2 4.0507812,2.3496094 C 2.6841168,2.8829511 2,4.1000063 2,6 v 13.949219 c 0,1.333316 0.3333342,2.333316 1,3 L 4.0507812,23.650391 6,23.949219 H 22 L 24.150391,23.550781 25,22.949219 c 0.666658,-0.666684 1,-1.666684 1,-3 V 6 C 26,3.3333417 24.666656,2 22,2 Z"
       transform="matrix(0.26458333,0,0,0.26458333,88.650998,124.52722)"
       id="path276" />
    <path
       id="path278"
       style="fill:#e86a17;fill-opacity:1;stroke-width:0.264583"
       d="m 89.709331,127.9668 v 1.83865 l 0.01344,0.15916 c 0.0441,0.24694 0.21587,0.37 0.515731,0.37 h 4.233333 c 0.352775,0 0.529167,-0.17639 0.529167,-0.52916 v -1.83865 h -0.529167 -4.233333 z" />
  </g>
</svg>
