<?xml version="1.0" encoding="UTF-8" standalone="no"?>
<!-- Created with Inkscape (http://www.inkscape.org/) -->

<svg
   width="26.45834mm"
   height="26.45833mm"
   viewBox="0 0 26.45834 26.45833"
   version="1.1"
   id="svg1385"
   xmlns="http://www.w3.org/2000/svg"
   xmlns:svg="http://www.w3.org/2000/svg">
  <defs
     id="defs1382" />
  <g
     id="layer1"
     transform="translate(-119.99701,-125.2409)">
    <path
       stroke="none"
       fill="#8ac2d4"
       fill-opacity="0.8"
       d="m 145.92618,127.10621 q 0,-1.33614 -1.34938,-1.33614 h -22.71448 q -1.33614,0 -1.33614,1.33614 v 22.72771 q 0,1.33615 1.33614,1.33615 h 22.71448 q 1.34938,0 1.34938,-1.33615 v -22.72771 m 0.52917,0 v 22.72771 q 0,0.92604 -0.48948,1.37583 -0.4498,0.48948 -1.38907,0.48948 h -22.71448 q -1.86531,0 -1.86531,-1.86531 v -22.72771 q 0,-1.86531 1.86531,-1.86531 h 22.71448 q 0.93927,0 1.38907,0.48948 0.48948,0.44979 0.48948,1.37583"
       id="path492"
       style="stroke-width:0.264583" />
    <path
       stroke="none"
       fill="#aae9ff"
       fill-opacity="0.301961"
       d="m 144.5768,126.29923 q 0.82021,0 0.82021,0.80698 v 22.72771 q 0,0.80698 -0.82021,0.80698 h -22.71448 q -0.80697,0 -0.80697,-0.80698 v -22.72771 q 0,-0.80698 0.80697,-0.80698 h 22.71448"
       id="path494"
       style="stroke-width:0.264583" />
    <path
       stroke="none"
       fill="#bde7f5"
       fill-opacity="0.8"
       d="m 144.5768,126.29923 h -22.71448 q -0.80697,0 -0.80697,0.80698 v 22.72771 q 0,0.80698 0.80697,0.80698 h 22.71448 q 0.82021,0 0.82021,-0.80698 v -22.72771 q 0,-0.80698 -0.82021,-0.80698 m 1.34938,0.80698 v 22.72771 q 0,1.33615 -1.34938,1.33615 h -22.71448 q -1.33614,0 -1.33614,-1.33615 v -22.72771 q 0,-1.33614 1.33614,-1.33614 h 22.71448 q 1.34938,0 1.34938,1.33614"
       id="path496"
       style="stroke-width:0.264583" />
  </g>
</svg>
