<?xml version="1.0" encoding="UTF-8" standalone="no"?>
<!-- Created with Inkscape (http://www.inkscape.org/) -->

<svg
   width="26.458332mm"
   height="26.45833mm"
   viewBox="0 0 26.458332 26.45833"
   version="1.1"
   id="svg1385"
   xmlns="http://www.w3.org/2000/svg"
   xmlns:svg="http://www.w3.org/2000/svg">
  <defs
     id="defs1382" />
  <g
     id="layer1"
     transform="translate(-90.091757,-119.82985)">
    <path
       stroke="none"
       fill="#aae9ff"
       fill-opacity="0.301961"
       d="m 112.97822,120.88821 2.51354,2.51354 v 21.02115 q 0,0.80698 -0.82021,0.80698 H 91.95707 q -0.79375,0 -0.806979,-0.76729 v -22.79386 q 0.01323,-0.78052 0.806979,-0.78052 h 21.02115"
       id="path510"
       style="stroke-width:0.264583" />
    <path
       stroke="none"
       fill="#bde7f5"
       fill-opacity="0.8"
       d="M 112.97822,120.88821 H 91.95707 q -0.79375,0 -0.806979,0.78052 v 22.79386 q 0.01323,0.76729 0.806979,0.76729 h 22.71448 q 0.82021,0 0.82021,-0.80698 v -21.02115 l -2.51354,-2.51354 m 3.0427,2.51354 v 21.02115 q 0,1.33615 -1.34937,1.33615 H 91.95707 q -0.489479,0 -0.806979,-0.18521 -0.529167,-0.30427 -0.529167,-1.15094 v -22.72771 q 0,-0.84666 0.529167,-1.15094 0.3175,-0.1852 0.806979,-0.1852 h 21.02115 q 0.22489,0 0.38364,0.15875 l 2.51354,2.51354 q 0.14552,0.14552 0.14552,0.37041"
       id="path512"
       style="stroke-width:0.264583" />
    <path
       stroke="none"
       fill="#8ac2d4"
       fill-opacity="0.8"
       d="m 116.02092,123.40175 q 0,-0.22489 -0.14552,-0.37041 l -2.51354,-2.51354 q -0.15875,-0.15875 -0.38364,-0.15875 H 91.95707 q -0.489479,0 -0.806979,0.1852 -0.529167,0.30428 -0.529167,1.15094 v 22.72771 q 0,0.84667 0.529167,1.15094 0.3175,0.18521 0.806979,0.18521 h 22.71448 q 1.34937,0 1.34937,-1.33615 v -21.02115 m 0.2249,-0.75406 v 0.0132 q 0.30427,0.30427 0.30427,0.74083 v 21.02115 q 0,0.92604 -0.48948,1.37583 -0.44979,0.48948 -1.38906,0.48948 H 91.95707 q -0.661459,0 -1.071563,-0.25135 -0.79375,-0.42333 -0.79375,-1.61396 v -22.72771 q 0,-1.19062 0.79375,-1.60073 0.410104,-0.26458 1.071563,-0.26458 h 21.02115 q 0.43656,0 0.75406,0.30427 l 2.51354,2.51354"
       id="path514"
       style="stroke-width:0.264583" />
  </g>
</svg>
