<?xml version="1.0" encoding="UTF-8" standalone="no"?>
<!-- Created with Inkscape (http://www.inkscape.org/) -->

<svg
   width="26.45833mm"
   height="29.633301mm"
   viewBox="0 0 26.45833 29.633301"
   version="1.1"
   id="svg1385"
   xmlns="http://www.w3.org/2000/svg"
   xmlns:svg="http://www.w3.org/2000/svg">
  <defs
     id="defs1382" />
  <g
     id="layer1"
     transform="translate(-108.25059,-123.33568)">
    <path
       stroke="none"
       fill="#8ac2d4"
       fill-opacity="0.8"
       d="m 132.83038,127.03983 h -4.04812 l -3.01625,-3.01625 q -0.15875,-0.15875 -0.38365,-0.15875 h -13.49375 q -0.2249,0 -0.37042,0.15875 -0.15875,0.14552 -0.15875,0.37041 v 2.64584 h -1.24354 q -1.33614,0 -1.33614,1.33614 v 22.72771 q 0,1.33615 1.33614,1.33615 h 22.71448 q 1.34938,0 1.34938,-1.33615 v -22.72771 q 0,-1.33614 -1.34938,-1.33614 m 1.38906,-0.0397 q 0.48948,0.44979 0.48948,1.37583 v 22.72771 q 0,0.92604 -0.48948,1.37583 -0.44979,0.48948 -1.38906,0.48948 H 110.1159 q -1.86531,0 -1.86531,-1.86531 v -22.72771 q 0,-1.86531 1.86531,-1.86531 h 0.71438 v -2.11667 q 0,-0.43656 0.30427,-0.74083 l 0.0132,-0.0132 q 0.30427,-0.30427 0.74083,-0.30427 h 13.49375 q 0.43656,0 0.75406,0.30427 l 2.87073,2.87073 h 3.82323 q 0.93927,0 1.38906,0.48948"
       id="path498"
       style="stroke-width:0.264583" />
    <path
       stroke="none"
       fill="#bde7f5"
       fill-opacity="0.8"
       d="m 132.83038,127.03983 q 1.34938,0 1.34938,1.33614 v 22.72771 q 0,1.33615 -1.34938,1.33615 H 110.1159 q -1.33614,0 -1.33614,-1.33615 v -22.72771 q 0,-1.33614 1.33614,-1.33614 h 1.24354 v -2.64584 q 0,-0.22489 0.15875,-0.37041 0.14552,-0.15875 0.37042,-0.15875 h 13.49375 q 0.2249,0 0.38365,0.15875 l 3.01625,3.01625 h 4.04812 m 0.82021,1.33614 q 0,-0.80698 -0.82021,-0.80698 h -4.27302 l -3.175,-3.175 h -13.49375 v 3.175 h -1.77271 q -0.80698,0 -0.80698,0.80698 v 22.72771 q 0,0.80698 0.80698,0.80698 h 22.71448 q 0.82021,0 0.82021,-0.80698 v -22.72771"
       id="path500"
       style="stroke-width:0.264583" />
    <path
       stroke="none"
       fill="#aae9ff"
       fill-opacity="0.301961"
       d="m 133.65059,128.37597 v 22.72771 q 0,0.80698 -0.82021,0.80698 H 110.1159 q -0.80698,0 -0.80698,-0.80698 v -22.72771 q 0,-0.80698 0.80698,-0.80698 h 1.77271 v -3.175 h 13.49375 l 3.175,3.175 h 4.27302 q 0.82021,0 0.82021,0.80698"
       id="path502"
       style="stroke-width:0.264583" />
  </g>
</svg>
