<?xml version="1.0" encoding="UTF-8" standalone="no"?>
<!-- Created with Inkscape (http://www.inkscape.org/) -->

<svg
   width="26.45833mm"
   height="26.45834mm"
   viewBox="0 0 26.45833 26.45834"
   version="1.1"
   id="svg16602"
   xmlns="http://www.w3.org/2000/svg"
   xmlns:svg="http://www.w3.org/2000/svg">
  <defs
     id="defs16599" />
  <g
     id="layer1"
     transform="translate(-214.00062,-245.64502)">
    <path
       stroke="none"
       fill="#fa8132"
       d="m 214.52978,253.1195 v -5.60917 q 0,-1.33614 1.33615,-1.33614 h 13.85094 l -0.21167,0.52917 h -13.63927 q -0.80698,0 -0.80698,0.80697 v 5.60917 h -0.52917"
       id="path18"
       style="stroke-width:0.264583" />
    <path
       stroke="none"
       fill="#ecf2fa"
       d="m 214.52978,253.1195 h 0.52917 11.98562 l -0.21166,0.52917 h -11.77396 v 16.58937 q 0,0.80698 0.80698,0.80698 h 22.71448 q 0.82021,0 0.82021,-0.80698 v -22.72771 q 0,-0.80697 -0.82021,-0.80697 h -9.07521 l 0.21167,-0.52917 h 8.86354 q 1.34937,0 1.34937,1.33614 v 22.72771 q 0,1.33615 -1.34937,1.33615 h -22.71448 q -1.33615,0 -1.33615,-1.33615 V 253.1195"
       id="path20"
       style="stroke-width:0.264583" />
    <path
       stroke="none"
       fill="#9ea4ad"
       d="m 214.52978,253.1195 v 17.11854 q 0,1.33615 1.33615,1.33615 h 22.71448 q 1.34937,0 1.34937,-1.33615 v -22.72771 q 0,-1.33614 -1.34937,-1.33614 h -8.86354 l 0.19843,-0.52917 h 8.66511 q 0.93927,0 1.38906,0.48948 0.48948,0.44979 0.48948,1.37583 v 22.72771 q 0,0.92604 -0.48948,1.37584 -0.44979,0.48948 -1.38906,0.48948 h -22.71448 q -1.86531,0 -1.86531,-1.86532 V 253.1195 h 0.52916"
       id="path22"
       style="stroke-width:0.264583" />
    <path
       stroke="none"
       fill="#cd5d12"
       d="m 214.52978,253.1195 h -0.52916 v -5.60917 q 0,-1.86531 1.86531,-1.86531 h 14.04937 l -0.19843,0.52917 h -13.85094 q -1.33615,0 -1.33615,1.33614 v 5.60917"
       id="path24"
       style="stroke-width:0.264583" />
    <path
       stroke="none"
       fill="#e86a17"
       d="m 215.05895,253.1195 v -5.60917 q 0,-0.80697 0.80698,-0.80697 h 13.63927 l -2.46063,6.41614 h -11.98562"
       id="path26"
       style="stroke-width:0.264583" />
    <path
       stroke="none"
       fill="#d6dde7"
       d="m 227.04457,253.1195 2.46063,-6.41614 h 9.07521 q 0.82021,0 0.82021,0.80697 v 22.72771 q 0,0.80698 -0.82021,0.80698 h -22.71448 q -0.80698,0 -0.80698,-0.80698 v -16.58937 h 11.77396 l 0.21166,-0.52917"
       id="path28"
       style="stroke-width:0.264583" />
    <path
       stroke="none"
       fill="#9ea4ad"
       d="m 238.34228,248.29086 q -0.22489,0 -0.38364,-0.15875 -0.14552,-0.14553 -0.14552,-0.37042 0,-0.2249 0.14552,-0.38365 0.15875,-0.14552 0.38364,-0.14552 0.2249,0 0.37042,0.14552 0.15875,0.15875 0.15875,0.38365 0,0.22489 -0.15875,0.37042 -0.14552,0.15875 -0.37042,0.15875"
       id="path30"
       style="stroke-width:0.264583" />
    <path
       stroke="none"
       fill="#9ea4ad"
       d="m 216.11728,270.51586 q -0.22489,0 -0.38364,-0.15875 -0.14552,-0.14553 -0.14552,-0.37042 0,-0.2249 0.14552,-0.38365 0.15875,-0.14552 0.38364,-0.14552 0.2249,0 0.37042,0.14552 0.15875,0.15875 0.15875,0.38365 0,0.22489 -0.15875,0.37042 -0.14552,0.15875 -0.37042,0.15875"
       id="path32"
       style="stroke-width:0.264583" />
    <path
       stroke="none"
       fill="#9ea4ad"
       d="m 237.95864,270.35711 q -0.14552,-0.14553 -0.14552,-0.37042 0,-0.2249 0.14552,-0.38365 0.15875,-0.14552 0.38364,-0.14552 0.2249,0 0.37042,0.14552 0.15875,0.15875 0.15875,0.38365 0,0.22489 -0.15875,0.37042 -0.14552,0.15875 -0.37042,0.15875 -0.22489,0 -0.38364,-0.15875"
       id="path34"
       style="stroke-width:0.264583" />
  </g>
</svg>
