<?xml version="1.0" encoding="UTF-8" standalone="no"?>
<!-- Created with Inkscape (http://www.inkscape.org/) -->

<svg
   width="26.458332mm"
   height="26.45834mm"
   viewBox="0 0 26.458332 26.45834"
   version="1.1"
   id="svg6334"
   xmlns="http://www.w3.org/2000/svg"
   xmlns:svg="http://www.w3.org/2000/svg">
  <defs
     id="defs6331" />
  <g
     id="layer1"
     transform="translate(-58.447342,-194.55645)">
    <path
       stroke="none"
       fill="#9ea4ad"
       d="m 84.905675,196.42176 v 22.72771 q 0,0.92604 -0.489479,1.37584 -0.449792,0.48948 -1.389063,0.48948 H 60.312655 q -1.865313,0 -1.865313,-1.86532 v -22.72771 q 0,-1.86531 1.865313,-1.86531 h 22.714478 q 0.939271,0 1.389063,0.48948 0.489479,0.44979 0.489479,1.37583 m -0.529167,0 q 0,-1.33614 -1.349375,-1.33614 H 60.312655 q -1.336146,0 -1.336146,1.33614 v 22.72771 q 0,1.33615 1.336146,1.33615 h 22.714478 q 1.349375,0 1.349375,-1.33615 v -22.72771"
       id="path4"
       style="stroke-width:0.264583" />
    <path
       stroke="none"
       fill="#d6dde7"
       d="m 83.027133,195.61479 q 0.820209,0 0.820209,0.80697 v 22.72771 q 0,0.80698 -0.820209,0.80698 H 60.312655 q -0.80698,0 -0.80698,-0.80698 v -22.72771 q 0,-0.80697 0.80698,-0.80697 h 22.714478"
       id="path6"
       style="stroke-width:0.264583" />
    <path
       stroke="none"
       fill="#ecf2fa"
       d="M 83.027133,195.61479 H 60.312655 q -0.80698,0 -0.80698,0.80697 v 22.72771 q 0,0.80698 0.80698,0.80698 h 22.714478 q 0.820209,0 0.820209,-0.80698 v -22.72771 q 0,-0.80697 -0.820209,-0.80697 m 1.349375,0.80697 v 22.72771 q 0,1.33615 -1.349375,1.33615 H 60.312655 q -1.336146,0 -1.336146,-1.33615 v -22.72771 q 0,-1.33614 1.336146,-1.33614 h 22.714478 q 1.349375,0 1.349375,1.33614"
       id="path8"
       style="stroke-width:0.264583" />
    <path
       stroke="none"
       fill="#9ea4ad"
       d="m 61.093175,196.67312 q 0,0.22489 -0.15875,0.37042 -0.14552,0.15875 -0.370416,0.15875 -0.224896,0 -0.383646,-0.15875 -0.145521,-0.14553 -0.145521,-0.37042 0,-0.2249 0.145521,-0.38365 0.15875,-0.14552 0.383646,-0.14552 0.224896,0 0.370416,0.14552 0.15875,0.15875 0.15875,0.38365"
       id="path10"
       style="stroke-width:0.264583" />
    <path
       stroke="none"
       fill="#9ea4ad"
       d="m 83.159425,197.04354 q -0.145521,0.15875 -0.370417,0.15875 -0.224895,0 -0.383645,-0.15875 -0.145521,-0.14553 -0.145521,-0.37042 0,-0.2249 0.145521,-0.38365 0.15875,-0.14552 0.383645,-0.14552 0.224896,0 0.370417,0.14552 0.15875,0.15875 0.15875,0.38365 0,0.22489 -0.15875,0.37042"
       id="path12"
       style="stroke-width:0.264583" />
    <path
       stroke="none"
       fill="#9ea4ad"
       d="m 60.934425,219.26854 q -0.14552,0.15875 -0.370416,0.15875 -0.224896,0 -0.383646,-0.15875 -0.145521,-0.14553 -0.145521,-0.37042 0,-0.2249 0.145521,-0.38365 0.15875,-0.14552 0.383646,-0.14552 0.224896,0 0.370416,0.14552 0.15875,0.15875 0.15875,0.38365 0,0.22489 -0.15875,0.37042"
       id="path14"
       style="stroke-width:0.264583" />
    <path
       stroke="none"
       fill="#9ea4ad"
       d="m 82.789008,219.42729 q -0.224895,0 -0.383645,-0.15875 -0.145521,-0.14553 -0.145521,-0.37042 0,-0.2249 0.145521,-0.38365 0.15875,-0.14552 0.383645,-0.14552 0.224896,0 0.370417,0.14552 0.15875,0.15875 0.15875,0.38365 0,0.22489 -0.15875,0.37042 -0.145521,0.15875 -0.370417,0.15875"
       id="path16"
       style="stroke-width:0.264583" />
  </g>
</svg>
