<?xml version="1.0" encoding="UTF-8" standalone="no"?>
<!-- Created with Inkscape (http://www.inkscape.org/) -->

<svg
   width="21.166666mm"
   height="21.16667mm"
   viewBox="0 0 21.166666 21.16667"
   version="1.1"
   id="svg36485"
   xmlns="http://www.w3.org/2000/svg"
   xmlns:svg="http://www.w3.org/2000/svg">
  <defs
     id="defs36482" />
  <g
     id="layer1"
     transform="translate(-3.5232137,-81.681099)">
    <path
       stroke="none"
       fill="#b6bec9"
       d="m 3.5232137,84.009433 v -0.463021 q 0,-1.865312 1.8653125,-1.865312 H 22.811338 q 0.939271,0 1.389063,0.489479 0.489479,0.449792 0.489479,1.375833 v 0.436563 Q 24.66342,83.123079 24.200401,82.699746 23.750609,82.210267 22.811338,82.210267 H 5.3885262 q -1.825625,0 -1.8653125,1.799166"
       id="path154"
       style="stroke-width:0.264583" />
    <path
       stroke="none"
       fill="#c9d0d9"
       d="m 3.5232137,84.009433 q 0.039688,-1.799166 1.8653125,-1.799166 H 22.811338 q 0.939271,0 1.389063,0.489479 0.463021,0.423333 0.489479,1.283229 V 101.0486 q -0.01323,0.87312 -0.489479,1.30969 -0.449792,0.48948 -1.389063,0.48948 H 5.3885262 q -1.825625,0 -1.8653125,-1.79917 V 84.009433"
       id="path156"
       style="stroke-width:0.264583" />
  </g>
</svg>
