<?xml version="1.0" encoding="UTF-8" standalone="no"?>
<svg
   version="1.1"
   id="Europe"
   image-rendering="auto"
   text-rendering="auto"
   color-rendering="auto"
   shape-rendering="auto"
   color-interpolation="auto"
   x="0px"
   y="0px"
   width="491.66016"
   height="491.66019"
   viewBox="0 0 491.66017 491.6602"
   enable-background="new 0 0 1401.34 1198.34"
   sodipodi:docname="favicon.svg"
   inkscape:version="1.2-dev (7f462d36a2, 2021-04-25)"
   xmlns:inkscape="http://www.inkscape.org/namespaces/inkscape"
   xmlns:sodipodi="http://sodipodi.sourceforge.net/DTD/sodipodi-0.dtd"
   xmlns:xlink="http://www.w3.org/1999/xlink"
   xmlns="http://www.w3.org/2000/svg"
   xmlns:svg="http://www.w3.org/2000/svg"
   xmlns:rdf="http://www.w3.org/1999/02/22-rdf-syntax-ns#"
   xmlns:cc="http://creativecommons.org/ns#"
   xmlns:dc="http://purl.org/dc/elements/1.1/">
  <sodipodi:namedview
     id="namedview2357"
     pagecolor="#ffffff"
     bordercolor="#999999"
     borderopacity="1"
     objecttolerance="10.0"
     gridtolerance="10.0"
     guidetolerance="10.0"
     inkscape:pageshadow="0"
     inkscape:pageopacity="0"
     inkscape:pagecheckerboard="0"
     showgrid="false"
     showguides="false"
     inkscape:zoom="0.65006594"
     inkscape:cx="623.78287"
     inkscape:cy="185.36581"
     inkscape:window-width="1864"
     inkscape:window-height="1016"
     inkscape:window-x="56"
     inkscape:window-y="27"
     inkscape:window-maximized="1"
     inkscape:current-layer="Europe" />
  <metadata
     id="metadata16974">
    <rdf:RDF>
      <cc:Work
         rdf:about="">
        <dc:format>image/svg+xml</dc:format>
        <dc:type
           rdf:resource="http://purl.org/dc/dcmitype/StillImage" />
      </cc:Work>
    </rdf:RDF>
  </metadata>
  <defs
     id="defs16972">
    <linearGradient
       inkscape:collect="always"
       id="linearGradient5273">
      <stop
         style="stop-color:#71c837;stop-opacity:1"
         offset="0"
         id="stop5269" />
      <stop
         style="stop-color:#447821;stop-opacity:1"
         offset="1"
         id="stop5271" />
    </linearGradient>
    <linearGradient
       inkscape:collect="always"
       xlink:href="#linearGradient5273"
       id="linearGradient5275"
       x1="170.48502"
       y1="572.01129"
       x2="521.82837"
       y2="872.72095"
       gradientUnits="userSpaceOnUse"
       gradientTransform="translate(-76.789062,-542.34961)" />
  </defs>
  <path
     id="rect7581"
     style="fill:#003380"
     d="M 0,-3.2324219e-6 V 491.66019 H 491.66016 V -3.2324219e-6 Z" />
  <path
     id="shp-sa"
     style="fill:url(#linearGradient5275);fill-opacity:1"
     d="M 61.693358,-3.2324219e-6 62.031248,0.21093677 62.224608,-3.2324219e-6 Z m 1.70703,0 -0.34961,0.4511700024219 -0.78906,0.31836 -0.23047,1.21094003 0.58985,0.82031 0.15039,1.04883 0.55859,0.85156 -0.64844,0.7793 -0.7207,-1.65039 -0.84961,0.24023 -0.61133,0.9707 -0.21875,1.75977 1.04883,0.0391 2.08008,-0.51953 3.2207,1.48047 -0.69922,0.93945 -0.75976,0.83008 0.81836,0.9296902 -3.72852,-0.46875 -0.87109,-0.2109402 -0.99024,-0.0195 -0.93945,0.01 -0.24023,1.0605402 -0.65039,1.08008 -0.12891,1.45899 1.91992,1.88085 1.51953,0.69922 -1.40039,-0.5 -1.55859,-0.98046 -1.30078,0.2207 -1.96094,-0.13086 0.66016,1.14062 -0.76954,-0.36132 -0.75,-0.44922 -1.31054,0.27148 -1,0.11914 0.75,0.60156 0.21093,1.15821 1.0293,1.03125 -0.75976,-0.21094 -0.28907,0.91016 -0.66992,0.95898 1.06836,0.5 1.28125,1.14063 0.79883,-0.0898 0.26172,-0.94922 1.26953,0.80078 0.93945,0.0586 -0.26953,0.86914 -0.90039,0.30043 -1.05078,0.24023 -0.22852,1.09961 0.85938,0.041 0.76953,0.93945 1.38086,-0.42969 1.20898,-1.31054 0.89063,0.16992 -0.58985,1.06055 0.91993,-0.0215 0.25,-0.1582 0.0703,1.09766 -0.75977,-0.12891 -0.25,1.45117 -0.60156,0.76953 0.82031,0.15039 0.91993,-1.08984 -0.29883,1.16992 0.54883,0.98828 1.21093,0.22071 0.99024,-0.26954 6.13867,1.15039 1.11133,-0.0898 1.34961,0.83008 -0.97071,0.64844 -1.04883,0.31054 1.8086,0.55078 h 0.75 l -1.48828,0.96876 -0.16016,1.03124 -0.41992,-1.08984 -0.93164,0.73828 -0.68945,-0.81836 -1.15039,-0.0801 0.31054,1.16016 -1.64062,-0.10156 -0.63868,-1.06836 -0.80078,-0.33008 -0.91015,1.04883 -0.98047,0.76953 -1.91016,2.15234 -0.80859,0.78907 -0.54102,0.91797 1.42969,1.08203 -1.46875,0.82031 -0.51953,0.87891 -0.82031,0.91015 -0.53125,0.86914 -0.5293,0.8711 -0.83008,0.11132 -0.78906,-0.25 -1.02148,0.69922 -4.8086,2.62891 -1.04101,-0.0195 -1.40039,0.61914 3.48046,0.4707 1.01954,0.01 0.91992,-0.79883 0.88086,0.0488 2,-1.08985 0.0996,1.01954 1.48046,1.25 0.95899,0.23046 2.08008,0.15039 -0.66992,1.01954 1,-0.44922 2.13085,0.16015 2.26954,-1.82031 2.32031,-1.37891 -0.14063,1.10938 0.0996,1.20898 1.85156,0.41993 1.42969,0.91992 -0.68945,0.0488 -4.05078,0.10156 -0.86914,0.16992 -0.79102,-0.40039 -2.49023,0.11133 -1.68946,0.31836 -1.64062,-0.38868 -2.65039,-0.56054 -1.48828,-0.41992 -1.1211,-0.30078 -0.93945,0.55078 -0.33984,1.09961 0.21875,1.10937 -0.93946,-0.41992 -1.08984,0.60156 -2.10938,0.34961 -2.05078,-0.0312 0.67969,0.88086 1.16992,0.88086 -1.15039,2.08008 0.041,0.96875 0.7793,0.67969 1.05078,0.73046 -1.58008,-0.77929 -1.09961,0.55078 -1.38086,-0.56055 -0.98047,-1.23047 0.3418,-1.25976 -0.8418,-0.34961 -0.0684,1.32812 -1.31055,0.5918 -1.26953,-0.35938 0.33985,-1.45117 -2.3711,0.0899 -0.88867,0.7207 -1.02148,0.64062 -0.69922,0.96875 -0.65039,-1.01171 -0.70899,0.82226 -0.64062,0.94922 -0.0996,0.94922 0.83008,0.35156 1.54883,-0.39062 0.77148,0.01 0.7793,0.0586 1.06054,0.67187 0.7793,0.43945 3.28906,0.27149 0.68164,1.03906 0.14844,-1.03125 3.32031,1.63086 -1.45898,-0.21094 -1.07031,-0.70898 -0.93946,2.01953 -0.60156,-1.08984 -0.70898,0.93945 -0.90039,0.25 -1.91016,-0.12891 -1.94922,0.43946 -1,0.55078 -0.65039,0.88867 -0.34961,1.11133 -2.25,0.44922 0.5293,1.58984 -0.15039,1.17187 1.28125,-0.55078 1.61914,-0.13086 -0.2793,1.58985 -0.80078,0.0195 1.33984,1.76172 1.09961,-0.18946 1.0918,-0.56054 0.85937,0.27929 1.25977,-0.45117 1.41992,0.43164 0.93946,-0.5 1.4414,-0.25976 2.91992,0.25 -1.30078,0.32812 -1.32031,-0.1582 -0.91016,0.56836 -0.58984,1.30078 -1.04883,-0.33984 h -0.98047 l -1.28125,0.1289 -0.5,1.22071 -1.60937,0.68945 -0.99024,0.2207 -0.35937,0.96094 h -1.41016 l -0.51953,0.87891 0.91992,-0.32032 1.09961,0.23047 1.09961,0.11914 2.03125,-0.63867 0.87891,-0.14062 3.25,0.24023 1.29101,0.21094 0.87891,-0.15039 1.41016,-0.5293 0.41015,-1.08203 0.041,0.98047 1.21875,1.07031 -0.93946,0.7207 -0.75,-0.0312 -0.81054,0.17969 -1.01953,0.25 -2.72071,0.63086 -1.70898,0.66992 -0.96094,0.3086 1.23047,0.24218 4.60938,-0.39062 -1.21876,0.32031 -1.11132,0.74023 -0.88868,0.2793 -1.14062,0.14063 -0.88086,0.5 -0.86914,0.16797 0.0898,1.17187 0.80078,0.23047 1.28907,-0.56055 1.74023,-0.67969 0.65039,0.79883 1.25,-0.60937 2.96875,0.13086 -0.51953,1.01758 1,-0.18946 1,-0.0605 -1.13867,0.58203 -0.55078,1.00976 0.91015,0.14063 0.85938,-0.45117 1.58008,0.56054 0.87109,-0.84961 1.10938,0.18946 0.42968,-1.00977 0.80078,0.67969 1.45899,-0.041 1.41016,0.8418 1.01953,-0.35938 0.71093,-0.77148 0.94922,0.43945 1.02149,0.75977 1.00976,-0.44922 0.45899,-1.00977 -1.18946,-0.76953 2.24024,0.83008 1.32031,0.0996 0.56836,0.91016 0.20117,-1.0293 v -1.7207 l 0.87891,0.24023 0.66016,0.89844 0.48046,-0.8086 0.85938,0.29883 0.77148,0.01 0.87891,-0.42774 0.9707,-0.96093 -0.14062,-1.06055 -0.31055,-1 0.2207,-1.36914 -1.34961,-0.74024 0.84961,-0.0703 1.16016,0.23047 0.82031,0.33008 0.78907,0.16992 0.80078,0.73828 -0.0996,0.93946 -0.89063,0.14062 0.34961,1.28125 1.24024,0.18945 0.80078,-0.0996 1.52929,0.0606 0.49024,-0.93164 1.11914,-0.19922 1.61133,-0.32031 -0.64063,-0.81836 1.14063,-0.30273 0.95898,-0.54883 2.12109,0.66015 0.78907,-0.83007 0.99023,0.37109 1.10938,-0.44141 0.30078,-0.92968 0.28906,-1.25977 -0.87891,-0.0215 0.39063,-0.88868 0.83008,-0.0898 1.43945,0.31055 1.5,-0.40039 4.43945,0.84961 1.08008,-0.33008 0.84961,-0.5 0.88086,0.41015 -0.48047,0.93164 0.86914,0.17774 0.841802,-0.17774 0.70898,-1.45117 0.29102,-1.63086 0.2793,-0.99023 0.20898,1.31055 0.51172,1.05078 -0.041,1.66015 -1.09961,0.7793 1.15039,-0.42969 1.83985,-1.34179 0.38867,-0.87891 0.9707,-0.12109 -0.65039,1.03125 1.40039,0.10937 1.6211,1.04102 0.69922,0.76953 0.91992,-0.28907 1.31054,0.29883 0.94922,0.1211 0.83985,-0.16993 -0.31055,0.85938 0.89063,-0.38867 0.85937,-1.24219 -0.75976,-1.21875 0.30078,-1.58984 -0.96094,0.53906 -0.22852,-1.91016 1.60938,0.31055 0.24023,-1.13086 0.91016,-1.14844 1.18945,-0.80078 1.9707,-2.14844 0.41016,-1.83203 0.01,-0.93945 0.32031,-1.0293 1.25,-1.40039 0.64844,-1.56054 1.39062,-2.03907 0.90039,-0.86132 1.35938,-1.63868 0.7207,-0.96093 -0.58984,-1.08008 0.0586,-1.0293 0.53125,-1.17187 0.40039,-1.44922 -0.5,-1.93946 0.22852,-0.91015 -0.2793,-1.18946 0.24023,-1.13085 -0.18945,-1.03907 -0.93164,-1.15039 -0.25976,-1.1914 1.41992,-0.61914 0.77148,0.36914 0.7793,-0.20704 -0.66992,-0.82226 -0.1211,-1.01953 -0.69922,-1.01953 0.79102,0.42968 0.75976,-0.94922 0.22852,-0.42968 0.66016,-0.8418 -0.0586,-1.25 -0.80078,-0.75976 -0.58008,-1.29883 -0.59961,-1.02149 v -0.95898 l 0.66993,-3.05078 0.0703,-1.30078 0.5293,-1.28907 -1.32032,-0.5 -0.82031,-1.1289 0.16016,-1.14063 0.56054,-1.39062 0.3711,-1.06836 0.93945,0.34961 1.62891,1.15039 0.79101,0.63867 1.10938,-0.62891 -0.79883,-1.44922 -0.53125,-0.85156 -0.41016,-0.89062 -0.30859,-0.69922 0.88867,0.41015 0.75,0.98829 1.23047,1.58203 1,0.0391 1.61914,-0.91016 1.29102,-0.57031 0.60937,-1.03906 0.44141,-1.2207 0.42968,-1.5586 0.76954,-0.0508 0.85937,-0.11914 0.79102,0.0996 1.34961,0.93164 0.9707,-0.63086 1.38867,-1.11914 0.42969,-0.84961 -0.31836,-1.92969 -0.82031,0.0469 -1.49024,0.15039 1,-0.6601602 0.91992,-1.9414 -0.0898,-1.00782 0.41016,-1.16992 -1.11133,-0.93164 0.32031,-1.08008 0.9707,0.54102 0.99024,1.5 0.23047,1.36914 -0.35156,1.45117 -0.74024,0.78906 0.33008,1.2207102 0.28125,1.41015 0.88867,-0.48047 0.49024,-1 0.16992,-1.0507802 0.66992,-0.83984 0.26172,-1.0293 -0.36133,-1.4707 0.16992,-1.25977 -0.44922,-1.03906 0.0195,-1.96094 -0.53906,-0.85937003 -2.25,-0.11914 -0.88086,-0.58008 -1.16015,0.41992 -0.93946,0.33984003 -1.10937,1.00977 -0.38086,-1.00977 0.98437,-1.04101003242 H 89.308728 l 0.67187,0.95117000242 -1.59961,-0.38086 -0.43945,1.10156003 0.13867,1.04883 -0.80859,-0.57031 -0.64063,-0.93945 -0.41992,-1.08203003 -0.33594,-0.12891000242 h -8.51758 L 77.220838,0.78219677 76.730598,1.7704768 76.761798,0.23141677 76.617268,9.4676758e-4 Z m 92.884772,0 0.0762,0.1289100024219 0.15039,1.11132003 0.42969,1.30078 -0.30078,0.99024 0.48047,0.94922 0.95898,0.0605 0.3418,-1.11914 -0.56055,-1.37109 -0.32031,-1.67969003 0.0703,-0.371090002422 z m 5.77344,0 2.3125,2.4804700324219 0.84961,2.00976 1.54101,0.91993 1.16992,-0.41993 0.10938,-1.28906 0.32031,-1.2793 -0.0879,-1.30078 -0.66016,-0.91992003 0.13672,-0.201170002422 z m 6.95312,0 0.002,0.010000002422 1.79883,0.92968 0.86133,-0.58984 -0.41016,1.23047003 0.41993,1.20117 1.52929,0.80859 0.0996,-1.05859 0.79102,0.0488 0.36914,1.54883 0.89062,0.0508 1.63868,-0.8086 0.75,-1.11132 1,-0.51954 1.25,0.46094 1,-0.57226 2.30078,-0.10938 0.24023,-1.18945003 -0.0156,-0.33008000242 z m 19.40039,0 3.20117,0.8496100024219 1.73828,0.16992003 -1.00781,0.41016 0.88867,0.40039 -1.95898,0.0918 -1.16016,-0.90234 -1.20117,0.13086 -0.8789,0.59961 1.00976,0.86133 -1.99219,-0.38086 -1.04882,1.24023 -0.88868,2.31055 -0.95117,1.29883 -0.83008,0.29101 -0.58984,0.99024 -0.89063,1.31054 -0.95898,2.3789102 -1.11914,1.48047 0.58984,1.08984 1.60938,3.24024 0.81055,1.81054 -0.0605,1.07813 -0.2207,1 0.58007,1.25977 0.76172,1.80078 1.44922,-0.0801 0.66016,-1.18946 -0.16016,1.08008 -0.98047,0.96875 0.1211,0.97071 -0.0215,1.43945 1.24024,1.07031 0.6914,-0.98047 0.68946,-0.8789 0.92968,-1.20117 0.7793,-1.16993 -0.0586,1.02149 0.39843,1.27929 1.23047,-0.0703 1.56055,-1.20898 1.25,-1.1211 -0.48047,1.1211 -0.91016,0.72851 0.66993,2.06055 -0.7793,1.05078 -0.94922,0.38867 -1.06055,1.03125 0.24024,1.08985 1.28906,-0.21094 -0.93945,1.04101 -1.20117,0.63868 -2.3086,0.53125 -0.33984,1.41015 -0.66016,2.34961 0.94922,2.36914 1.31055,0.59961 -1.25,0.78125 -1.24024,1.12891 -1.60937,1.83008 -0.41992,1.33984 1.28906,5.20117 1.43945,2.18946 0.75,0.45117 1.6211,-0.40039 1.06054,0.16015 -0.88086,0.3086 -1.36914,0.87109 -0.75,0.13867 -1.10156,-0.42968 -0.63867,-1.01954 -0.58008,-3.14062 -0.75977,-0.72852 -1.1914,0.50782 -1.46875,0.38086 0.0996,1.02148 0.50976,1.01953 0.61914,2.01953 -0.20898,1.16992 -0.57031,-0.8789 -2.14063,-2.04102 -1.25976,-1.51953 -0.79883,-0.12109 -3.91992,1.11132 -0.79102,0.0391 -2.41992,-0.59961 -0.5293,-0.96094 -0.98047,-0.42969 -0.90039,-0.15039 -0.1289,1.17188 -2.23047,0.45898 -1.22071,0.46094 -0.98046,0.0391 -0.75,-0.14844 -1.15821,0.28907 -1.08008,1.18945 -0.93164,0.47852 -0.98828,0.9121 -0.87109,0.47852 -0.29883,1.30078 -0.43164,0.92969 -1.91016,1.14062 -2.17968,1.00977 -1.0586,0.0996 -3.65039,3 -0.16992,0.98047 0.94922,-0.44922 1.64062,0.21875 1.41993,0.48047 0.86914,-0.25 0.67968,-0.85938 0.76172,-0.89062 0.85938,-0.36914 1.32031,0.27929 0.7793,-0.29101 1.44922,-0.14844 1.57031,0.44922 1.56055,0.16016 -1.51954,0.91015 v 1.18946 l -0.76953,0.96875 0.25,1.15234 1.09961,2.08008 0.91992,0.0996 -1.12109,0.5 -0.79883,0.80859 -0.98047,1.25 -0.0996,1.30078 0.62891,1.38086 0.79102,0.31055 1.52929,0.16992 -1.67968,0.51953 -0.81055,0.31055 -0.28906,1.10937 -0.65039,1.30078 -0.83008,1.95704 -0.7793,1 -1.44141,1.39062 -3.78906,1.54102 -1.0293,0.70117 -0.88085,0.45898 -1.31055,0.60938 -2.36914,-0.58008 -0.82031,0.21094 -0.14063,0.93945 -1.24023,-0.35938 -1.40821,1.16016 -0.85156,0.0684 -0.68945,0.91211 -0.99024,-0.13086 -0.98047,0.0293 -1.11914,-0.87891 -1.30078,0.56055 -0.94922,1.20898 -0.85937,0.12891 -0.89261,0.05069 -1.09961,0.55078 -0.87109,0.48047 -0.25,1.08008 1.74023,0.16015 1.21094,0.45704 0.26953,1.2207 -0.14062,1.31055 -0.86915,0.60937 -1.00976,0.21094 -0.90039,0.5 0.91992,1.55078 0.57031,-0.8418 3.06055,1.01172 1.58984,-0.041 0.26953,-0.89844 -0.0801,-1.08985 1.11914,0.11914 0.82031,0.01 -1.23047,0.60938 0.35156,1.66015 -0.98047,0.041 h -0.98046 l -1.01954,0.25 -0.9902,0.03884 -1.33008,0.16992 0.91016,0.44922 0.30078,1.41211 1.86914,0.628913 0.83984,-0.519543 0.8711,-0.35937 1.72851,0.39844 0.95117,0.0312 0.89844,-1.22071 0.93164,-1.09961 h 1.44922 l 1.41992,0.49024 0.75,0.11914 1.17969,-0.66016 1.01953,-0.64062 -0.34961,1.05078 0.47071,1.13086 -0.79102,-0.28125 0.5,1.281253 0.83008,0.7793 1.90039,-0.0703 0.95117,0.81055 0.75,0.24023 0.75,-0.01 -0.60156,0.83984 -0.97852,0.0508 -1.00976,-0.13086 -1.23047,-0.14062 -0.80078,0.16992 v 0.92969 l -0.0488,1.09961 1.44922,0.4707 0.75976,0.25 1,-0.4414 0.85938,0.43164 0.87109,0.23046 0.85938,-0.35156 -0.16016,-0.96875 0.81055,-0.34179 2.53906,0.49218 0.75,1.41992 0.27148,1.0293 -0.01,1.30078 0.4082,1.00782 1.06055,0.28125 0.9707,1.17968 1.00977,1.74024 4.83984,1.37109 1.7793,-0.24023 0.78125,-0.15039 0.12891,-1.3711 0.9707,-0.71875 1.30078,-0.66992 2.75976,-0.61914 1.67969,0.17969 0.89063,-0.15039 1.22851,-0.57032 1.41016,-0.29101 2.66992,-2.31836 1.65039,-0.91992 1.0293,-0.76172 0.87109,-0.0391 0.83985,-0.50977 -0.59961,0.94922 -1.25977,0.28125 -0.83008,0.79883 -1.81054,1.68164 -0.81055,0.77929 -2.74023,3.03907 -0.91993,0.0605 -1.18945,0.41993 -1.66016,1.55078 -0.84961,0.58984 -1.12109,0.12891 -0.25976,0.88086 -1.01954,0.90039 0.10938,1.01758 -0.21875,1.5 -1.24024,0.98242 -0.80078,-0.0312 -2.02929,-0.33985 -1.5,0.19141 -2.2793,-0.32031 -0.8418,-0.92188 -2.36914,-1.04883 -1.58984,-0.24023 -2.79102,-1.19922 -1.14844,0.2207 -1.81054,-0.29296 -0.79102,0.14062 -3.67968,-0.35937 -1.46876,0.70117 -0.13085,0.94922 -0.81055,-0.16016 0.35156,1.08984 0.0586,1.13868 -0.58985,0.89062 -2.40039,1.45117 -1.85937,-0.9707 -1.90039,-0.17969 -0.0586,1.16992 -0.63086,0.97071 -0.48047,1.25976 -0.45898,2.81055 -0.76953,0.98828 -1.41016,0.81055 -0.58008,0.87109 -1.91992,0.79883 -0.33984,0.93164 -0.77149,0.97852 -1.01953,0.46875 -1.98047,0.13281 -0.0195,1 0.75977,0.91015 -2.09961,-1.39062 -1.15039,0.54883 -0.33985,1.16015 -0.77929,1.75 -2.25977,1.13868 -0.54101,0.95117 -0.84961,0.35937 -2.80078,1.93946 -0.83008,0.26171 -0.84961,-0.0605 -0.71875,0.9707 -0.83008,-0.11914 -0.94141,-0.82031 -1.60937,0.42968 -1.43946,0.47071 -0.82031,0.16992 -0.73047,1.13867 -0.42968,1.21094 0.69922,1.45898 0.99023,0.10938 0.88086,-0.0879 1.07031,-0.68164 0.53906,-1.25 0.99024,-0.01 0.88086,0.7793 0.78906,0.32226 1.66016,1.67774 0.41992,1.64062 0.0293,1.07032 0.80078,1.1289 0.5,-0.83984 0.90039,-0.67774 0.83984,0.16797 1.13867,-1.27929 -1.16992,-1.41993 1.16016,-0.95117 0.52148,-0.93945 1.06836,-0.67969 0.0508,1.58985 1.4707,-1.50977 1.3086,-0.25 0.88086,-0.46094 1.2793,0.0215 0.32031,-0.91016 0.7207,-0.83984 0.25,-0.89063 1.10938,-0.10937 0.68945,0.75 3.35156,0.4707 0.83984,-0.15039 1.63868,-0.63086 0.95117,0.0801 1.92969,1.08008 0.66015,1.01953 -0.0801,-1.12891 0.0293,-1.01953 -1.41992,-0.60156 1.46094,0.0312 0.8789,-0.68946 -0.18945,0.95704 1.40039,1.27148 -0.26953,1.07031 1.25976,1.60938 0.84961,-0.36914 0.97071,-0.0703 1.08984,1.48047 0.88867,1.67969 0.6211,0.83984 1,0.0703 0.78906,0.22851 0.86133,-0.0781 0.31836,-0.92188 0.58008,-1.34961 0.95117,-0.80859 0.75976,-0.85938 0.83985,0.36914 0.58007,-0.9707 0.57032,-0.83008 -1.22071,-0.36132 0.58008,-1.17774 0.91992,0.0195 -0.10937,-1.39062 0.48047,-1.43946 0.76953,-1.08007 0.73047,-1.10938 0.16992,-1.43164 0.50976,1.63086 0.75977,0.28125 1.57031,-0.38086 0.92969,-1.03906 1.58008,-0.24219 0.96875,0.3418 0.80078,-0.22071 1.59961,-0.0195 1.28125,-0.32031 2.01953,0.0195 3.20899,1.91016 3.65039,3.9707 0.62109,1.69922 -0.16016,-1.13086 0.0996,-1 0.65039,-0.89844 0.79883,-0.12109 1.05078,0.56055 3.65039,1.06054 1.72852,1.09961 2.08008,-0.35937 0.73047,-0.81055 -0.12891,-1.03125 -0.9707,-0.30859 -0.75,-0.97071 1.24023,-0.2207 1.41992,0.65234 0.81055,-0.37109 0.87891,-0.01 1.60937,0.41993 0.8418,-0.28907 0.9082,0.01 1.3418,0.49023 0.85937,0.40821 1.57031,-0.86914 0.79883,-0.25 1.04102,-0.56055 1.30859,0.0898 0.49024,-0.91992 -2.41992,-3.38867 2.33007,1.84961 0.84961,1.21875 1.04102,0.82031 1.08984,1.24024 1.0293,-0.2793 -0.34961,-1.5918 1.61133,0.35156 -0.64063,0.89844 0.0605,1.05078 0.9082,-0.55078 0.64063,-1.25781 1.01953,0.0488 1.24023,0.75976 0.69141,0.99024 -0.95117,0.83984 1.66015,1.46094 0.84961,0.0488 0.0898,-0.92969 0.82031,0.0801 3.46094,-0.61914 3.43945,0.5 3.40039,-0.17188 1.24023,-0.0488 3.96876,2.10938 0.85156,0.18164 0.81836,0.69727 0.93164,0.1621 2.01953,0.66993 0.88476,-0.97071 1.41407,-1.03906 0.79101,-0.23047 4.49024,-0.37109 0.85937,-0.26953 2.21094,-1.66992 0.83984,-0.16993 3.47657,1.1211 -0.0566,-1.26172 0.29883,-1.17774 1.21094,-1.38086 0.87891,-0.63085 0.83593,-0.28125 1.32422,0.13281 0.79102,-0.47071 0.90039,-0.14062 0.83008,-0.34961 2.01953,-0.90039 0.51953,-0.96875 0.31055,-1.20117 -0.25,-2.16992 0.0547,-1.34961 1.19532,-0.50977 -0.14063,-1.38086 -6.51367,-0.16992 -2.55664,0.46094 -2.32031,-0.92969 1.07031,0.2793 0.55078,-1.00977 -0.36523,-0.51172 -2.72461,-1.5 -0.80078,1.05078 0.51953,0.99024 -0.50977,-0.19922 -0.54883,-1.0918 v 1.14063 l -0.78125,-0.31836 -1.70898,-0.22071 -0.1543,-0.9414 0.75,-0.0879 1.02344,-0.49219 1.33008,0.0918 -0.43946,-1.03125 -3.125,-0.87891 -1.83593,0.7793 -0.99414,-0.0703 0.92578,-0.48829 0.40429,-0.87109 1.41993,-0.17969 0.83007,0.37891 0.83204,-0.23047 0.90234,-0.42969 0.83008,0.0918 1.54101,0.45898 0.92969,-0.16992 1.21484,-0.57031 1.13477,-0.78906 0.48047,-1.66016 0.41992,-1.15039 -0.11523,-0.9707 -0.41993,-1.14063 -1.25585,0.58008 -1.92969,0.60156 -0.65039,-1.23047 1.45117,-0.24023 0.83984,0.34961 0.92969,-0.5 0.2793,-0.91016 0.83593,-0.55859 0.77539,-0.26953 0.46876,-0.90039 0.65039,1.40039 0.76953,0.97851 2.08008,-0.22851 1.10156,-0.56055 1.08984,-1.56055 -1.23047,-0.58984 1.46485,-1.81055 -3.22461,-0.93945 1.43945,-0.17969 0.98047,0.5293 1.05469,0.0606 -0.10547,-0.92969 -0.86914,-0.32031 -0.45117,-1.15039 1.4414,1.16992 1.62891,1.5 1.55078,-1.35938 1,-1.37109 0.7793,-0.32813 1.83007,-1.08203 0.51954,-1.40039 0.66015,-1.6582 0.11133,-1.45117 0.62891,-1.359383 0.75,-1.06054 1.2207,-2.79883 1.08008,-2.15039 -0.29102,-1.55078 0.19141,-1.78125 0.13867,-1.16797 -0.13867,-0.97071 -0.25,-0.9707 -0.19141,-1.54883 -0.86328,-1.54883 -4.3457,-4.25 -2.20117,-1.48242 -5.78321,-1.95898 0.89453,0.34961 -0.93554,0.29883 -0.87891,-0.3379 -1.55664,-0.83984 -2.0293,-0.36133 -1.10937,-0.0391 -0.93164,-0.16016 -1.0586,0.0606 -1.75976,0.92774 -0.74024,1.25 -0.56445,1.59179 -0.88672,0.89063 -0.73437,1.08984 -0.71485,-1.07226 -1.17969,-0.17774 -0.75976,-0.43164 -0.78125,-1.67969 -1.37891,-1.16797 -1.60547,-0.0215 0.66993,-0.96875 0.94531,-0.5 2.48047,-2.31055 2.28906,-1.66992 0.75977,-0.30078 0.63085,-1.60938 0.16993,-1.35937 -0.0996,-1.24219 -0.98047,-4.50781 -0.16016,-0.98047 -0.35937,-0.98047 -0.76367,-1.32031 -1.27735,-1.18945 -1.60937,-1.75 -0.72071,-1.24024 -0.91015,-0.34179 -0.77344,-1.06836 -0.77539,-0.56055 -1.05469,-2.31055 -0.75586,-0.98828 -4.78515,0.0684 -1.10547,-0.84766 -1.12891,0.11914 -0.9414,-0.0703 1.83789,-0.74023 1.51367,0.89844 0.77929,0.0117 1.5,0.22071 2.49024,-0.47071 1.41015,0.84961 1.75,2.91993 0.76563,0.45117 0.87305,0.0605 0.79101,-0.35156 0.7793,0.16992 1.37109,1.18164 -0.13086,1.06836 0.3711,-1 -0.15039,-1.09961 -2.66016,-5.51171 -1.54101,-3.39844 -0.20313,-1 -0.51563,-3.10938 1.32032,-1.78125 1.19531,-1.40039 -2.58594,-1.97851 -0.0996,-1.20117 -1.48047,-1.01954 -0.46093,-1.06054 -0.2793,-1.03907 -0.0195,-1.48046 -0.41016,-1.34961 -0.76953,-0.83985 -0.0703,-1.16992 -0.59961,-1.07031 -3.75,-3.26953 -3.60156,-1.75977 -0.79883,-0.74023 -0.75977,-0.23047 -0.86132,-0.98047 -0.29883,0.86133 -0.55078,-0.76172 0.16015,-1.03906 0.33985,-0.90039 -0.90039,-0.58985 -0.75977,-1.19922 -0.23438,-1.07031 -0.44531,-4.8203102 0.11524,-1.60156 -0.70899,-1.28907 -0.18555,-1.01953 -0.4707,-1.42969 -0.15039,-0.98046 0.01,-0.93946003 -0.0527,-0.47070000242 z m 211.125,0 -0.18555,0.5996100024219 -0.81445,3.48047003 1.5,0.5 2.38477,1.78125 -0.57032,-1.04102 -0.91015,-0.41992 v -1.02148 l 0.5,-1.01758 0.75976,0.58984 2.32032,3.2207 0.86914,0.29883 1.2207,0.0606 1.10938,0.53906 0.37109,1.3086 0.12891,1.4511702 0.2207,1.2207 -0.25977,1.08984 0.10547,1.37891 0.20899,1.38086 -0.0156,1.84961 -1,-0.25977 -1.13867,-0.53906 0.38867,-1.05078 -0.76953,-0.25 -1.11914,0.7207 -0.22461,1.60938 0.1543,1.57031 0.82031,0.26953 0.79883,-0.81054 0.35547,-1.51954 1.74414,1.22071 -0.51953,1.63867 0.0664,1.85156 0.42383,1.61914 -0.13477,1.10156 -0.21484,0.94922 -0.29492,1.25 0.32031,1.39649 0.58008,1.31445 0.50976,1.11914 0.99024,0.89649 0.75976,0.80078 0.70899,2.18359 0.84961,0.83008 1.97461,2.4082 -1.18945,1.88086 -0.81055,0.6875 -0.86914,0.35938 -2.06446,-0.0391 -2.11718,0.47071 0.60742,1.25976 -1.09961,0.33008 -0.23047,1.16016 1.62109,1.33008 0.92969,-0.70118 1.24024,0.0703 0.99023,-0.28907 0.83984,0.20899 1.1504,-0.67969 -0.49024,0.97852 -0.83008,0.58007 -1.04101,0.60938 -0.0703,0.98633 -0.41992,1.35351 0.96094,1.63086 0.95898,-0.66015 1.06446,0.60351 0.80859,0.97852 -0.11914,1.18945 -0.31055,0.97852 -1.54882,-0.46094 -1.54102,0.21094 2.13086,4 1.29883,0.35351 1.42968,0.33984 2.41016,0.0898 1.41992,0.62109 1.19141,1.04883 0.70898,0.91992 0.29102,1.04102 1.17969,1.5 1.08984,0.67969 0.11914,1.43945 0.83984,1.74023 2.07032,1.17969 1.71094,0.21094 0.70898,0.93945 -2.33984,-0.5293 -1.36914,-0.91015 -1.09961,-0.47852 -1.30274,-1.93945 -0.25,-0.97852 -0.80273,-0.77734 -0.75,-0.91016 -2.23633,-3.85156 -0.8125,-0.0781 -0.89063,-0.0293 -1.5,-0.0312 -1.88086,0.76172 -0.76367,-0.0664 -1.38867,0.31641 -0.81445,0.0137 -1.47852,-0.39453 -2.0625,-1.60547 -0.82617,0.0488 -0.80469,0.60156 -0.61914,1.25 -0.54101,1.93359 -0.87891,2.23047 -0.01,1.07813 0.37891,1.35156 0.49023,1.10938 0.56055,1.42968 -0.59961,1.29102 -0.75,0.99023 -0.041,0.94922 0.0898,2.80078 -0.34961,-1.39062 0.0195,-1.8125 0.47461,-1.60547 0.15625,-1.5 -1.61523,-0.36133 -0.99024,-0.72851 -0.84765,-1.05469 -0.80078,0.0215 -0.75977,0.8418 -0.16016,1.0918 0.16993,1.06054 1.30078,0.48047 -0.13086,1.10156 -0.44727,1.08985 -0.67187,0.89258 -0.76172,0.16992 -0.91016,-0.98828 -0.88867,-0.57813 -0.89258,-0.49023 0.0215,-1.28907 0.75976,-0.041 0.95899,-0.76953 -0.83985,-1.19922 -0.44922,-1.0625 -0.76953,-1.03906 -0.5,-1.16992 0.15821,-1.14454 -1.51172,-0.48828 -5.73828,0.63282 -2.83985,0.5 -0.83008,-0.5625 -2.94922,0.2207 -1.52929,0.5293 -1.1211,0.95898 -1.34961,1.15039 0.67969,1.56641 -0.42969,1.0625 -1.41015,0.54101 -0.51953,1.5 0.85156,3.66016 4.35742,0.3164 1.1875,1.01172 -1,-0.60937 -0.85937,-0.12891 -0.77735,0.83985 -0.14258,1.08007 -0.67968,0.44922 0.52929,0.80078 -0.52929,3.16016 0.25,3.60547 -0.008,0.0293 -0.25,-3.60938 0.5293,-3.1582 -0.5293,-0.80078 -0.13085,0.0898 -1.94922,-0.7793 -0.39063,-1.14062 -1.48047,-0.63086 -1.47851,-1.09961 -1.23047,-3.21875 -1.88086,-0.41016 -4.54883,0.49024 -4.27148,0.6289 -3.76953,-0.0801 -1.85938,-0.01 -1.42969,0.61133 -1.05078,0.44922 -3.85937,1.59961 -1.32032,0.20898 -1.76953,1.37109 -1.16015,1.08985 -0.46094,0.95117 -0.66016,2.1582 -0.86328,0.99024 -1.58594,0.75 -4.125,3.23047 -0.77539,0.28906 -1.19922,0.16992 -1.33007,0.87109 h -0.75977 l -1.1914,-0.91015 0.0312,-1.0293 -1.17968,-0.26953 -0.43164,0.9082 -0.20313,1.34961 -0.26562,1.03125 -0.97071,2.08008 -0.34961,1.46094 -0.4707,1.55859 -1.28906,6.16016 -0.46094,1.03125 -0.24023,0.88867 -1.43946,3.400393 -2.26953,3.46094 -2.67969,3.34961 -3.80078,3.59961 -0.77929,0.0586 -0.9043,-0.2793 -0.10547,0.99024 0.25,1.88086 -0.0215,1 0.10156,1.31054 -0.75,-0.36132 h -1.23047 l -1.28516,0.27929 -0.5,1.24024 0.82422,-0.18946 1.02149,-0.0703 0.92968,0.19141 0.71876,1.16015 0.29101,1.51758 2.01953,1.17188 -1.03906,0.11914 -0.38086,0.89062 0.64062,1.11914 1.13868,0.98047 -0.95313,-0.65039 -2.3164,-0.11914 -1.10352,0.41016 1.45898,1.60937 0.75,0.40039 0.94532,0.0293 0.79883,0.42969 0.89062,0.24023 0.90039,0.91992 -0.2207,1.41016 -1.25977,0.0391 -0.78906,-0.13867 -1.78125,-0.53906 -0.5293,-1.66211 -0.75976,-0.78906 -0.94532,-0.47071 -1.15429,-0.93945 -1.41016,-1.52148 -5.40039,0.12109 -2.16016,1.08008 -0.01,1.16015 0.80469,1.0293 0.82422,1.24219 1.56054,0.3789 1.16992,-0.17968 0.72071,0.82031 1.15039,0.69922 1.18945,0.58008 1.31055,-0.47071 0.97851,-1.21875 1.13672,0.31055 1.02344,1.04883 0.79101,0.45117 1.78907,0.19727 0.91992,0.0312 0.12109,1.10937 0.39453,0.89063 0.10547,0.21093 -0.01,0.97852 0.79883,0.48047 -0.75,0.85937 0.1875,-0.89844 -0.85743,-1.10937 -0.15039,-0.5918 -0.0801,-0.33984 -0.78321,-0.68945 -0.90625,0.52929 -0.81054,-0.17968 -0.87891,-0.37891 -0.74024,-1.14063 -1.09961,-0.0117 -0.45117,0.92187 -3.25976,0.42969 -0.81446,-0.0703 -1,-0.83985 -1.90429,-0.73047 -1.83008,-0.71093 -3.14063,0.7207 -0.18945,0.041 -4.61133,1.04102 -4.28906,2.26953 -4.41016,2.04883 -2.93945,1.79101 -1.16992,0.47071 -0.38086,0.14844 -0.85938,0.29101 -1.67968,0.26953 -1.59571,-0.17969 -3.56445,0.76954 -3.27148,0.0508 -1.08985,0.21875 -4.72851,1.76953 -1.05469,1.06055 -1.00586,0.14062 -0.55078,0.94922 0.24023,1.96094 -0.47461,1.03906 -0.56445,1.21094 -0.23047,1.21093 0.0449,1.38868 -0.0156,1.9707 -0.24023,1.30859 -0.25,1.28907 -0.18946,1.5 -0.51953,1.25 1,1.2207 -1.28516,0.55078 -0.30468,1.22852 0.0156,1.30273 0.82422,0.5293 0.5293,1.09961 0.79101,0.23046 -0.33984,1.03907 -2.62109,-1.20899 -0.8125,0.85938 -1.1211,2.06054 -1.23633,1.20899 -2.93359,1.83984 -0.91602,0.82032 -1.07031,0.45117 -8.78906,1.68945 -1.77148,-0.25 -1.67969,0.38867 -1.61914,0.57227 -3.02539,1.48828 -3.31446,1.04101 -1.49023,1.01954 -1.20117,2.68945 -1.49414,2.37109 0.47461,1.06055 0.83984,0.51953 0.78125,0.13867 1.41992,0.70117 1.67969,0.45899 1.74023,-0.0195 1.58985,-0.73047 -0.84961,0.73047 -1.02149,0.36914 -5.30859,0.49023 -1.51563,0.81055 -0.79492,0.83984 -1.13086,0.49024 -1.0332,0.33008 -4.02539,0.74023 -1.78125,-1.46094 -1.00977,-0.38867 -0.91992,-0.71094 -1.41015,-0.20898 -1.33008,-0.71094 -1.31055,0.17969 -0.84961,-0.38867 -3.51953,-0.74024 -2.31055,-1.31054 -3.5,-0.10938 -0.82031,0.60938 -0.84961,-0.10938 0.38086,-1.15039 -0.0996,-1.2207 -1.4414,-3.15821 -0.43946,-1.28125 0.38086,-0.8789 0.97852,-0.68164 0.57031,-0.84961 -0.51953,-1.93946 -2.7793,-0.85937 -1.33008,0.33008 -1.00976,0.89844 -1.02149,-0.17969 -1.46875,-0.25 -1.45117,-0.7793 -1.84961,-0.68164 -0.67969,-0.86914 -1.16992,-0.47852 -0.87109,0.10938 -0.31836,1.19922 0.83984,0.53125 0.95899,1.19922 v 1 l -1.09961,1.7207 0.30078,1.36914 0.16992,0.94922 0.23828,1.51172 -0.25976,1.48828 0.78125,0.57031 0.75,0.90039 0.91992,0.5 -0.17969,1.04102 0.44922,1.17773 0.16016,1.23242 1.14062,0.34766 -0.65039,0.82031 0.0391,1.25977 -0.10937,0.99023 -0.44922,1.13086 0.10937,1 -0.0117,1.36914 0.86914,-0.53906 0.81054,0.5293 -0.98047,0.24023 -0.45898,2 -0.24023,0.91992 -0.41016,1.5 -0.32031,1.13086 0.14062,1.30078 -0.0605,1.65821 0.66993,0.82031 0.38086,1.19922 1.84961,1.52148 -2.33008,0.14844 -1.98047,-0.45898 -1.08985,0.40039 -1.69921,-0.01 -1.53125,-0.26953 -0.84961,-0.39063 -0.2793,-1.35937 0.60937,-1.46094 -2.10937,0.33985 -0.79102,-0.12891 -1.00976,0.83008 -0.16992,0.92773 0.23047,1.01172 0.35937,0.98828 0.58008,1.35156 -0.95899,0.50977 0.13868,-1.12891 -0.42969,-1.46093 -0.18945,-0.94141 -0.33008,-1.04883 -1.01953,-0.0703 -1.45118,0.86914 -0.42968,0.90234 -0.83008,-0.4414 -0.36914,-1.00977 -0.0606,-0.93945 -1.01953,0.5293 -0.75,-0.16993 1.25977,-1.35937 -0.99024,-0.24024 -1.33984,0.75977 -1.14063,-0.49023 -0.81054,0.93945 -2.20899,0.83984 -0.82031,0.8711 -0.84961,0.46093 -0.82031,-0.1914 -0.83008,0.1914 0.14062,-0.9707 -1.08984,-0.80078 -0.77148,-0.77148 0.0703,-0.92774 -0.0488,-0.99023 -1.24023,-1.75977 -0.72071,-1.30078 -0.0391,-1.03906 -1.5,-0.77149 -0.27148,-0.0488 0.89062,-0.9414 -0.84961,-0.14844 -0.83984,0.38867 -1.08985,1.27149 0.76953,-0.98242 0.41016,-1.47852 0.15039,-0.93945 -0.98047,0.2207 -1.00976,0.4082 -1.21094,0.8711 0.58008,-0.82032 -0.25,-1.23046 -1.36914,0.70117 -2.03125,0.4082 -0.83985,-0.21875 -0.92968,-0.64062 -0.93946,-0.37891 -0.76953,0.96875 -0.91015,0.93164 0.82031,1.28906 -1.25,0.68946 -0.26172,0.88085 -0.97852,-0.90039 -1.05078,0.01 -0.82031,-0.83008 -0.97852,-0.13086 -1.05078,-0.23828 -0.80078,0.94922 -0.38867,1.36133 -0.75,-1.46094 -0.85156,0.23047 -0.0684,-0.9707 -0.0703,-1.13868 -1.54102,0.31836 -1.46875,0.23047 -0.9707,-0.12109 -0.82032,0.27148 -0.54882,0.97852 -0.91016,-0.35938 -1.21094,0.21094 v -1.18945 l -1.14062,-0.0215 -1.40821,0.66993 -1.24023,0.17968 -1.63086,-0.32812 0.13086,0.95898 -1.21094,-0.29883 0.14063,1.25 -1,-0.73242 -1.33985,0.42188 -0.88086,0.15039 -0.70898,0.85937 -0.39063,0.86914 -0.33007,1.13086 -0.31055,1.16016 -0.25977,1.29883 0.38086,1.20117 1.86914,-0.23047 1.01954,0.59961 1.10156,-0.16016 1.08008,-0.0508 2.17968,-0.71875 1.91016,-0.0312 1.11914,-0.28906 -2.5,0.93945 -0.91992,1.42188 0.88086,0.19922 1.30859,-0.082 0.75,0.15234 -0.91015,0.69922 1.10156,0.4414 0.79883,0.31836 0.83984,0.49024 -1.57031,-0.3086 -1.42969,-0.18164 -2.00977,-0.5 -2.41992,-0.64062 -0.1289,-1.13867 -0.91016,1.50976 -0.93164,0.49024 1.4707,0.8789 -0.28906,1 0.28906,1.15039 0.91992,-1.18945 1.04102,-0.58008 0.97852,0.93946 0.88085,0.65039 0.84961,0.37109 0.20118,1.06836 0.26953,1.05078 -0.84961,1.13086 -1.13086,-0.60156 -7.48047,-0.0391 -0.68651,0.85949 1.49023,0.77148 1.07032,0.23829 0.82031,0.66015 0.83008,-0.23047 1.57812,1.84961 0.75,1.52149 L 125,220 l -0.3789,1.61133 -0.32032,0.9082 3.08008,0.76172 0.91016,-0.16992 0.93945,-1.18946 0.79102,-0.77148 0.0488,-1.32031 0.28124,1.49023 1.49024,1.11133 0.97852,-0.23047 0.71093,-0.91992 0.81055,1.39062 0.54883,1.04883 0.39062,1.14063 1.58008,0.53906 1.21875,-0.41992 0.65039,0.81054 1.08985,0.50977 0.87109,0.26953 1.43945,0.65039 0.36914,1.01953 0.8418,1.2793 1.98828,-0.80859 1.3418,-0.42969 -0.88086,0.54883 -0.54102,0.83008 1.5,0.91992 -1.00976,-0.35938 1.40039,0.67969 0.88086,0.91016 0.35937,-1.12891 1.10938,-0.25 -0.17969,-1.25977 0.78125,0.22852 0.37891,1.42969 -1.73047,0.46093 -0.47852,1.44922 0.81836,0.8711 0.2207,1.03906 -0.19922,1.16016 -0.41015,1.1289 0.23047,0.98242 0.8789,0.15821 -0.60937,-1.43946 0.0391,-0.91992 0.64063,-1.57031 0.68945,0.86133 2.04101,0.008 0.76954,0.33008 -0.33008,-1.06836 0.11914,-1.65234 0.73047,1.02148 0.01,0.93945 0.80078,0.36133 0.95899,-0.65039 1.33984,-0.31055 1.05078,0.84961 -0.83007,-0.35937 1.50976,0.91015 0.0312,-1.08984 0.17969,1.2793 -0.91016,1.25976 -1.09961,0.17969 -1.1914,-0.30859 -0.7793,-0.58985 -0.98047,0.0899 0.91016,0.90039 0.48047,1.1289 0.99023,0.32032 1.17969,-0.19922 1.0293,0.41992 0.48046,-0.87109 1,-0.14063 1.00977,-0.17969 -0.68945,0.99024 0.80078,0.14062 1.34961,0.01 1.52929,0.92969 0.8711,0.12109 -0.81055,0.0801 -1.62109,0.0176 0.20117,1.26171 1.54883,1.45899 -0.99024,0.0606 -0.77929,-0.32032 -1.86915,0.73047 1.43946,1.40039 0.74023,1.46094 -0.93945,0.36914 -1.37109,-0.53906 1.83984,1.41015 1.20117,-0.48242 0.86914,0.39063 0.69922,1.04101 0.78125,0.30078 1.01953,-0.51171 1.18946,-0.61915 0.92968,-0.52148 3.01172,0.29102 1.20899,0.83007 0.91015,0.34961 1.33008,1.33008 0.85938,1.25 1.24023,0.67969 -1.15039,-0.21875 -1.0586,-1.08008 -0.87109,-0.32226 -0.45898,-1.19727 -0.88086,-0.12109 -1.04883,-0.48047 -0.76172,-0.26953 -2.80859,0.25 -0.42969,1.09961 0.13867,1.02148 -0.33008,1.13867 -0.90039,0.0703 -0.16992,1.01954 2.41992,0.85156 1.47071,1.32812 0.32031,1.00977 -0.81055,1.29101 -0.88867,1.50977 -1.28125,0.66992 -0.75977,1.08008 -0.23046,1.2207 0.29101,1.39063 1.12891,0.88867 1.00976,1.46094 0.5918,1.65039 0.95898,0.55859 0.58985,1.54102 0.38086,1.26758 0.26953,1.12109 0.4707,2.87891 0.28906,-0.96875 0.50977,1.24023 1.23047,1.03125 1.13086,0.38867 0.61914,1.05078 1.45898,0.28907 1.03125,0.65039 0.26953,1.45117 0.68946,0.82812 1.5,-0.0195 1.05078,1.01953 0.85937,0.89063 0.91016,0.83008 0.12109,-1 0.88868,-0.3711 0.9707,0.21094 0.38086,1.21094 -0.20117,0.91992 -1.65039,0.71875 -0.5,1.12109 -0.2793,1.03907 0.93945,0.21875 0.75,1.04296 0.33008,1.03907 0.0312,1.08007 0.73828,0.94922 -0.67969,0.91016 -0.77929,-0.46875 0.33984,1.55859 0.0508,1.15039 -0.41016,1.01954 -0.87109,0.33984 -0.57031,0.92187 0.0898,1.34766 0.55078,1.07031 2.18946,2.56055 -1.91016,-1.46094 -1.60937,-1.96875 -1.58985,0.64063 -0.33008,2.3789 1.16993,0.32032 0.82031,1.05078 1.03906,0.51758 1.02148,1.37109 0.87891,1.30078 2.83985,2.75977 0.86132,1.33984 0.71875,1.82031 0.47071,2.10938 0.11914,1.26953 0.0215,6.21094 0.13867,1.05078 1.02149,1.61914 0.92968,0.45898 0.83985,0.57227 0.42969,1.07812 -0.93946,-0.82812 -1.25,-0.33985 0.91992,0.97852 -0.16992,1.55078 -0.32031,0.95899 0.0605,-1.33985 0.01,-1.2207 -0.83984,-0.7793 -0.75,-0.9707 -0.63086,-1.10938 -0.53906,-2.33007 -0.0215,-3 -0.0996,-1.86915 -0.1289,-1 -0.5,-1.02148 -2.61133,-3.56836 -0.86914,-0.66992 -1.33008,-1.39063 -0.36133,-1.04101 0.23047,-1 -0.99023,0.37109 -1.18946,1.87891 -1.35937,6.63086 -1.66016,4.88086 -3.62109,15.44922 0.51172,-1.07032 0.44922,-1.36132 1.60937,-1.96875 0.76953,0.33984 1.33008,2.31055 0.40039,1.15039 -1.32031,0.25976 -1.33984,-0.54883 -1.09961,0.41797 -0.83985,1.96094 -0.78906,1.04883 0.0488,1.40039 -0.43946,1.93945 -1.25976,4.36133 -2.76953,8.74023 -1.39063,3.99024 -0.81054,1.73047 -1.68946,5.04883 -0.82031,1.7207 -0.30078,0.96875 -0.76953,1.46094 -1.75,1.32031 -1.35938,1.39062 -1.13086,0.3086 -2.68976,-0.30918 v 0.008 l -0.78711,-0.0899 -0.90039,0.3125 -1.58008,1.46094 -0.88086,-0.60937 -1.19922,0.27148 -2.51953,0.38086 -1.45117,0.0508 -0.75976,-0.76172 -1.07032,0.0684 -1.02734,-0.0508 -0.96094,-0.26172 -0.89062,-0.43945 -2.07032,-1.4375 -0.8164,-1.04102 -0.96094,-0.36914 -1.25,-0.8125 -0.93945,-0.4082 -1.16016,0.47851 -0.27734,-1.20898 -1.08985,-1.10156 -0.9375,0.1875 -1.10351,-0.0801 -1.16992,-0.25 -1.30079,0.61914 -1.75,0.76172 -0.0508,0.91992 0.10938,1.04102 -1.64258,-1.7793 -1.02148,0.18164 -0.98829,-0.52148 -0.93945,-0.99024 -0.97851,-0.57812 -1.37891,-0.44922 -1.03125,-0.5918 -1.03906,-0.0391 -1.1211,-0.1582 0.0801,-1.0293 0.97852,-0.52149 -2.1875,-1.32812 -0.83008,-0.7793 -2.39063,0.5 -0.98046,0.0293 -0.91993,0.18945 0.0527,1.09961 -1.0293,-0.10742 -1.02148,0.16992 0.18359,-0.98828 0.99219,-1.00781 -1.36914,-0.23828 -0.89649,0.0684 -1.10351,0.0508 -1.16993,1.04101 -1.08984,-0.20117 -1.58984,-0.2207 -2.26172,0.55078 -2.898442,-0.23828 -1.29101,-0.26172 -0.81641,-0.1875 -1.27148,-0.3125 -1.07032,-0.33008 -5.55078,-1.7207 -1.69922,-1.27149 -2.02734,-1.05078 -1.0918,0.13086 -1.51172,-0.81836 -0.98828,-0.58984 -2.66992,-0.94922 -1.77148,-1.64844 -1.56055,0.041 -0.89258,-0.14844 -0.25,-1.2207 -4.62891,-0.77149 -1.30078,-1.05078 -0.80273,-0.54101 -1.35742,-2.28907 h -1.41016 l -0.95898,0.39258 -0.38086,1.0625 -3.43164,-0.29101 -1.0918,-0.0606 -2,-0.75 -0.92969,-0.72266 -0.95117,0.27149 -0.98633,0.14062 -1.17187,-0.25976 -1.22852,-0.0293 -1.07031,-0.041 -1.85156,-0.64062 -1.06836,-0.68164 -1.14063,-0.38086 -1.97265,0.18164 -0.86914,-0.48828 -1.70899,-0.39063 -2.24023,-0.43359 -1.36914,-0.0117 -0.93946,1.25 -0.56054,0.94922 0.43945,-1.3125 0.10742,-1.19727 -1.16016,-0.31836 -1.39648,-0.27148 -1.26172,-0.60742 -0.85156,-0.61914 -0.94922,-0.79102 -0.98828,-2.33008 -0.75,-0.9375 -1.88281,-1.66992 -1.72852,0.0391 -0.93945,0.10938 -0.71875,-1.57031 -0.85156,-0.17969 0.19726,-0.91016 -1.03906,0.57032 -1.470705,0.16992 -0.830078,1.00976 -1.318359,0.10352 0.851562,-0.89844 -0.289062,-1.08984 -0.761719,-0.76172 -1.259766,0.89062 -1.439453,0.25 -1.478516,0.38086 -0.630859,0.91992 -4.599609,1.9004 -1.150391,-0.3711 0.07031,0.9707 -0.710938,0.82032 -0.519531,1.08008 1.761719,0.22851 1.566406,0.60352 -2.509766,0.21093 0.771484,0.95899 1.089844,0.8125 -0.601562,0.89258 -0.06055,1 -0.392578,0.9375 -0.607422,-1.52735 -0.451172,-1.26172 -1.298828,-0.43164 -0.630859,1.30078 -0.521485,-1.35742 -2.179687,0.31836 -0.88086,0.69922 -2.021484,-0.27148 -1.66211,0.27734 v 41.23242 l 0.658204,-0.0664 c 1.145154,1.24912 1.553812,1.44236 1.763672,1.42968 -0.2027,0.0278 -0.594358,-0.13121 -1.779297,-1.42382 l -0.642579,0.0644 v 5.98242 l 2.023438,-1.80273 0.96875,-2.60157 c -0.180904,-0.22352 -0.273972,-0.28095 -0.347656,-0.28125 0.0055,-7e-4 0.01193,-0.006 0.01758,-0.006 0.07406,-9.8e-4 0.167359,0.0567 0.349609,0.28125 l -0.970703,2.60157 -2.041016,1.81445 v 2.46094 l 0.171876,1.08398 3.082031,0.56445 -0.01172,0.008 -3.089844,-0.56836 -0.152344,-0.9668 v 99.58402 h 4.347657 l 2.36914,-0.75 1.699219,-1.5118 1.431641,-2.5292 -1.371094,-3.0899 -2.5,-0.8125 -1.589844,-3.3008 -0.330078,-3.5801 0.169922,-3.0898 -1.509766,-3.7109 -2.070312,-3.0625 -0.279297,-1.8887 0.02734,0.01 0.277344,1.8711 2.066406,3.0625 1.511718,3.7089 -0.169921,3.0938 0.328125,3.5781 1.591796,3.3027 2.5,0.8086 1.369141,3.0918 -1.429687,2.5293 -1.701172,1.5098 -0.02148,0.01 -2.363281,0.75 H 181.95703 l 1.10547,-1.3965 1.75,-1.5 0.75,-0.8692 1.33008,-2.1074 0.73828,-0.8398 2.41992,-1.3809 2.13086,-2.6992 1.30078,-1.0625 1.33985,-1.3691 1.03906,-0.75 2.79102,-3.6094 0.64843,-1.2774 0.97852,-0.9492 1.90039,-3.1719 0.96875,-0.6406 2.08008,-0.3984 1.22851,0.3691 -2.13086,1.211 -0.85156,-0.2715 0.95117,0.8808 1.25,-0.8183 2.11719,-1.9199 2.0293,-0.461 0.76172,-0.8808 -0.81836,-0.8965 -1.07031,-1.3828 -1.03907,0.053 -1.27148,-0.8125 0.58008,-0.8672 2.42968,-1.8418 1.52149,-1.5898 3.89062,-2.83988 0.97071,-0.31445 1.03906,-0.0664 1.24023,0.1875 1.06836,-0.0781 0.71094,-0.8418 1.73633,-0.16992 6.30078,-1.56836 2.07031,0.0801 4.69922,-0.72852 1.58984,-0.16992 1.66016,-0.24023 1.66992,0.0117 1.00977,-0.16992 2.64453,-1.39844 0.77539,-0.8789 1.36133,-1.92188 1.5,-1.26953 1.85742,-0.58008 2.02148,-1.27148 5.06836,-1.75 3.54102,-1.69922 1.11719,-0.65039 0.92187,-0.63867 1.01172,-0.12109 0.94922,-0.30079 3.41992,-2.06836 1.36914,-1.19921 1.86719,-0.96094 0.80273,-1.16992 0.81055,-1.58008 -0.60742,-1.05078 -0.17188,-1.35742 0.23047,-1.36915 -0.56445,-1.01171 -1.13086,-1.02149 -0.01,-1.35937 0.3125,-1.15821 0.63086,-0.86914 3.10743,0.0625 0.43945,-1 0.64648,-1.0625 -1.27539,-0.31836 -0.83008,-0.5 -0.83007,-0.5 -0.33008,-1.17187 -2.42969,-0.0195 -2.76367,-1.33985 -3.17188,0.33008 -2.59961,0.62891 -2.93945,2.0625 -3.09961,-0.1836 -2.41015,-1.91992 -2.96094,-1.48828 -3.49024,0.96289 -2.95898,0.65625 -0.32813,-0.84961 0.32422,0.83399 2.96094,-0.66016 3.49023,-0.96094 2.95899,1.49024 2.41016,1.91992 3.09961,0.17969 2.9414,-2.06055 2.59961,-0.62891 3.16992,-0.33008 2.75586,1.33985 2.4336,0.0195 -0.10352,-0.36914 0.24414,-0.90039 0.0605,-0.78906 -0.68164,-1.1211 -1.70313,-2.4707 -0.0156,-2.81836 -0.0254,-1.04102 0.43554,-1.58984 0.0801,-1.14062 -0.43555,-0.97852 -1.00585,-0.35156 -0.59961,-1.0293 1.39648,-1.17969 0.1543,-0.88867 1.00976,-0.38086 -0.82031,-1.08008 0.73047,-0.89062 0.0293,0.9707 0.56054,-1.07031 0.75586,-1.5918 -0.38672,-0.96875 -0.44922,-1.35937 0.92969,0.0996 0.25977,1.00976 0.91015,-1.31054 1.10743,-1.0293 0.89257,-1.30078 3.42969,-2.16992 1.45117,-0.39844 1.39453,0.36914 2.93555,-2.75977 2.73438,-1.19922 4.97461,-3.67187 -1.5625,0.73242 -1.33204,1.25 -1.27539,0.93945 -1.57031,0.12891 2.03125,-0.66016 0.62891,-1.1289 2.26758,-1.47071 1.48242,-0.32031 1.10547,-0.66992 1.46484,0.48047 -0.94922,0.25 -1.16016,0.18945 1.42969,-0.0312 1.92969,0.90235 0.59961,2.21875 1.03125,0.46093 7.20898,0.7793 1.58985,0.82031 -0.21875,1.20899 0.28906,1.12109 0.93945,0.33008 3.41993,0.40039 0.32031,-0.91992 -1.25977,-1.25 -0.26367,-1.10156 0.084,-2.62891 -0.23046,-1.08008 0.5,1.06055 0.14062,1.03906 -0.17969,1.87109 1.04883,1.65821 1.37109,0.0215 1.03907,-0.6914 0.87109,-0.41797 1.68945,0.68945 1.15039,-0.15039 0.0801,-1.50977 -0.79101,-0.75976 0.10547,-1.2793 0.88476,0.0781 1.19531,0.24023 0.24415,0.94922 1.06054,0.76172 1.41992,0.16015 -0.85937,1.25 -1.13086,0.48829 -2.83008,0.2207 -0.28906,1.35156 1.15039,0.88867 1.83008,-0.0488 1.01953,0.21874 3.79883,-0.0195 0.36132,2.11914 -0.33007,0.95118 0.16992,1.09765 0.99023,0.19141 0.96875,-0.11914 1.2168,0.41992 0.91992,-0.31055 0.70899,0.98047 1.06445,-0.0293 1.47656,0.93945 0.85352,0.53906 1.21093,0.81055 0.91993,0.37109 -0.64063,1.23828 1.11524,0.55078 0.90429,-0.5 0.91993,-0.4414 -0.85938,-0.76953 1.2793,0.29101 1.29687,-0.17969 1.26367,0.6504 1.89063,0.66992 -0.70117,0.88867 1.33593,-0.42969 0.35547,-1.20117 0.99024,-0.76758 1.77929,0.16797 0.94922,0.67188 0.84571,-0.18165 0.37109,-1.06835 0.98437,-0.17188 1.25,-0.40039 0.84961,0.0606 1.20704,-0.87891 0.98242,0.81836 0.91992,-0.44922 1.16016,-0.93945 -0.15039,-0.97071 0.39083,-0.92876 -1.9707,-0.58984 1.16015,-0.3711 0.57032,-0.97851 1.04101,-0.61133 0.20899,-0.93945 0.80078,-1.43946 1.01562,0.56055 1.74414,-0.18164 0.86914,-0.73828 0.9668,-2.07032 1.08398,-0.96093 0.91602,-0.0391 1.19336,-0.45117 1.18555,-0.35937 0.14453,-1.74024 1.00976,-0.83984 1.04102,-0.38867 1.29883,-0.68164 1.41015,0.25976 0.38086,-1 1.07031,0.01 1.11915,-1.04883 1.04101,-0.62891 0.72852,0.0488 v -0.002 l 0.25,0.0215 0.96093,-0.18945 2.86329,0.084 0.97851,-0.18946 1.16016,-0.73047 4.07031,-0.86914 1.69922,-1.0625 1.04101,-0.68164 0.9375,-0.54883 1.25,-1.08984 0.0527,-1.41016 1.4707,-2.07031 0.0899,-0.99023 0.87109,-1.10547 1.02734,-0.66992 1.30274,-0.39453 0.9082,-0.61719 0.23633,-1.1836 0.77148,-1.05859 0.39649,-1.27148 1.73047,-1.10743 1.25,-0.69726 2.1289,-1.08985 0.91992,-0.82031 0.8711,-0.24023 1.49023,0.14258 0.9375,0.60742 1.07031,0.041 0.86915,0.3125 1.10742,0.40625 2.95898,0.8125 0.80469,1.44922 1.04883,0.41992 0.25,-1.22851 0.95117,0.25 2.56445,2.08984 1.43555,1.03906 1.09961,-0.1289 0.60937,0.91992 1.72852,1.20898 1.31445,1.14454 0.91992,0.18945 0.87891,0.74023 1.17969,1.10157 1.72265,1.0625 -0.35742,-1.03907 0.33008,-0.96093 1.37891,0.92968 1.34961,1.1211 0.83007,-0.41992 0.85547,0.31835 1.63868,0.98829 0.71093,1.22265 1.0293,0.75 0.67969,1.11719 0.98047,2.35352 0.28906,1.17968 0.75,7.69922 0.73633,2.9336 1.11132,0.75 1.5,2.0625 1.89844,3.8789 0.38086,1.29102 0.0508,1.31054 0.28906,1.22461 -0.25,1.09961 0.0898,1.0625 -0.50977,1.77735 -0.91992,1.09179 0.52734,1.56836 0.9336,-0.27148 1.03906,-0.35352 1.1582,0.0293 1.15821,0.29102 2.18359,1.28906 -0.16992,0.98828 v 1.3418 l -0.78906,0.98828 3.79882,1.25 1.25,0.64648 1.25977,1.49024 0.25,0.89062 1.14258,0.66016 1.0625,1.25976 0.45898,1.10938 1.00977,0.24023 0.70117,1.36914 -0.0703,1.28907 -0.39063,1.02734 -1.06054,0.0684 -0.97266,0.38086 0.62891,1.39062 1,0.61914 0.91015,-0.25976 0.58008,-1.2793 1.13086,-0.0801 1.77148,0.61914 1.03907,-0.21875 1.06054,0.62891 1.65039,0.83984 1.19727,0.3125 3.47852,3.01172 1.35156,2.62891 0.23828,1.02929 0.66016,0.95118 0.91992,1.25 0.75,0.9375 2.28125,0.10351 1.16015,0.98047 0.92969,0.18945 0.72852,1.03907 2.96093,2.48047 0.60743,1.01953 0.43359,1.23632 0.13281,1.29883 0.78907,1.08008 1.31054,0.47852 1.03125,0.44922 2.18555,1.84375 v -78.64649 l -0.52734,-0.39258 -1.26954,-1.60742 -0.98046,-0.89844 -1.16993,-1.72851 -0.61914,-1.82031 -0.57812,-1.4375 -0.18946,-1.06836 -0.78906,-3.18164 -0.13086,-1.41993 0.0703,-2.26172 -0.49023,-1.06054 -0.33008,-1.02149 -0.17969,-1.38086 0.11719,-1.27929 0.22852,-2.41016 1.24023,-0.25976 1.29102,1.27734 0.89453,-0.95898 -0.0273,-0.94922 -0.32813,-1.06836 0.82813,0.19922 -0.13086,1.02148 0.94921,-0.0215 0.4004,-1.0625 0.0996,-1.39258 0.52149,-0.92969 0.0644,-0.97266 -0.9375,0.14649 -0.99023,-1.06641 -0.74024,-0.98828 -1.02539,-0.69922 0.19727,1.06836 -0.56055,-1.10351 -0.60156,-1.06641 -0.18359,-1.21094 -0.19922,-1.52148 -0.47071,-1.27149 -0.64648,0.97852 -0.81836,-0.2207 -0.38086,-1.0293 0.0996,-1.0293 -0.55859,-0.9707 -0.61133,1.2207 0.0801,-1.55078 1.04101,-0.56055 0.52149,-1.10937 0.27734,-1.10156 -0.16992,-1.10938 0.41992,-1.08984 0.81445,-0.83008 0.90625,-0.53906 1.32813,-0.47071 0.93554,-0.0293 0.12891,-0.97071 1.06055,-0.84375 0.73047,1.1836 0.8164,-0.16016 -0.96093,0.5 -0.31055,1.0625 -0.96875,0.25 -0.81445,0.38281 -0.52539,1.25 0.90624,-0.48047 1.36915,-0.6875 1.87695,-0.76367 v -36.27929 l -2.16406,-0.0274 -2.8086,-0.94726 -0.01,-0.01 2.80273,0.94727 2.17969,0.0273 v -32.70117 l -0.60938,-0.0469 -2.89257,1.59961 -2.44727,-2.00976 -2.4707,0.20117 h -2.42969 l 0.002,-0.0273 h 2.42969 l 2.47266,-0.19922 2.44726,2.01172 2.89453,-1.60352 0.60352,0.0469 v -88.1504 l -1.98828,-0.36914 -2.28125,1.09961 -3.5293,2.06055 -2.25977,2.66992 -1.21093,2.8086 -1.82031,-2.8379 -2.37891,-1.61914 0.35742,2.68164 -0.004,-0.006 -0.35351,-2.67579 -0.004,-0.0254 2.37891,1.6211 1.82031,2.84179 1.21094,-2.8125 2.25976,-2.66992 3.5293,-2.0625 2.27734,-1.10156 1.9961,0.36914 V 43.199217 l -0.19141,-0.11328 -0.64453,-1.18946 v -1.34961 l -1.0664,-0.68945 -1.1504,-0.82812 -1.33007,1.3164 -1.41016,1.08008 -0.94531,-0.66992 -0.84375,-0.01 -0.89063,-0.3125 -1,0.61914 -1.13867,0.5293 -1.20117,0.63086 -0.78906,1.18945 -0.74024,1.14063 0.91992,0.4082 -0.85546,0.16016 -0.68555,-1.08008 0.22461,-1.14258 0.46094,-1.27734 1.31445,-1 0.86133,0.17968 1.59961,-1.31835 0.98046,-0.0215 0.81641,-0.31836 0.81836,0.27149 2.00977,0.0996 0.66015,-0.92969 -1.66992,-0.16016 -4.26953,0.16016 -1.49024,-0.9336 -0.4707,1.14258 -0.8418,1.68164 -1.0664,1.67969 -1.5918,2.28906 -1.89844,1.08008 -0.80078,1.1211 -0.83984,2.0625 -0.0293,1.02148 -0.0215,-1.64648 -0.81641,-0.43946 -4.46094,1.08008 -1.58007,-0.24023 -1.33008,0.5625 -0.64258,1.38085 -0.31055,0.91993 -0.57031,1.03906 -0.89063,0.54101 -0.5,1.33008 -0.3789,0.9375 -0.69141,1.41992 -0.75976,-1.00976 -1.25977,-0.63086 -0.91016,0.71094 -0.79882,-0.16016 0.0195,-1.07031 -0.7793,-0.33985 -0.56641,-0.91015 -2.30078,0.34375 -1.35937,0.64062 -0.85156,0.70899 -0.90821,0.12109 -1.16015,-0.99023 -1.16993,-0.91992 -0.0703,-1.04102 1.68164,-1.21875 1.0918,-0.49023 0.75,-0.99024 2.23633,-1.72851 0.43359,-1.05079 -0.16015,-1.47461 -0.0215,-1.00976 0.18945,-1.89648 0.0898,-1.01368 -1.31055,0.83008 -1.08984,-0.33008 0.80078,-0.25 -1.56445,0.22461 -1.25,0.6875 -1.6875,1.41992 -0.85938,0.16016 -0.7793,-0.18164 -1.6875,-1.56836 -2.96093,-1.29101 -1.5625,-1.10743 -0.79102,-0.0625 -0.86523,0.75 -1.0293,0.47071 -0.24023,1.07031 -0.91016,0.91992 -0.25977,-0.91992 0.92969,-0.79102 0.0137,-0.9375 0.22071,-1.11914 -1.48047,-1.10937 -4.51953,1.08008 -0.8125,-0.6504 0.77734,-0.0898 0.82031,-0.25976 0.75,-0.41993 1.01953,-1.27148 0.22461,-1.01953 0.0899,-1.9707 -0.76172,-1.2793 -0.93164,-0.2793 1.10351,-0.25 -0.39453,-1.06055 -0.67969,-1.64453 -0.96875,0.32032 -1.33007,0.41015 -0.85547,-1.16992 -0.79883,-0.46094 -0.78125,-0.35351 -1.13867,-0.0606 -1.1211,-0.69922 -0.0156,0.0117 -0.29883,-0.18164 -0.80273,0.62109 -1.38672,0.55078 0.3789,-1.07226 1.09571,-1.0293 0.77539,-0.44922 0.55468,-1.19922 0.97461,0.0977 -0.41992,0.98047 0.71094,1.18945 0.92969,0.0918 0.75,0.59766 -0.0254,-0.97852 0.30468,-1.22852 -0.78906,-3.09179 -1.39453,-0.60938 -0.73633,-0.83008 -0.90039,0.17969 -0.75976,0.10156 -1.10352,-0.29296 1.19336,-0.34766 0.80078,-0.91992 -1.66016,-1.5 0.78907,-0.041 -0.082,-0.91992 1.41211,-1.05078 1.08007,0.21094 0.88086,-0.5293 0.31055,-1.03125 -0.45117,-1.20899 -0.66992,-1.1621 0.01,-1.01758 -0.80859,-0.75 0.0684,-1.1308602 -0.0391,-0.99024 0.86915,-0.28906 0.21093,-1.18164 -1.40039,-0.42969 -1.25,-0.24023 0.82031,-0.8086 1.53907,-0.14062 1.15039,-0.2793 0.67969,-0.93164 0.75585,-0.81836 1.24415,-1.11132 -2.09961,-0.10938 -0.5,-0.97852003 -0.70118,-0.67187000242 z m 29.47852,0 L 429.74024,0.17186677 430.06641,-3.2324219e-6 Z m 23.42578,0 -2.56055,0.3398400024219 2,0.74024003 0.90039,0.51953 0.81055,1 0.31641,1.2207 -1.10743,1.60938 0.90039,-0.25782 0.75977,0.81836 0.38086,1.13086 0.10937,1.05078 0.0703,0.93946 -0.82032,0.34961 -0.81054,0.5585902 -0.10352,1.05078 0.81445,-0.69922 0.01,0.78907 1.19922,1.21093 0.41992,1.14844 0.44141,1.71094 1.09961,0.16992 0.8789,-0.44922 0.75,-0.40039 1.52149,0.48047 1.97851,0.37891 1.44141,-0.29883 0.89844,0.69922 1.10156,0.61132 -1.22461,1.03907 1.66406,1.6289 -2.50976,-0.32031 -1,-0.18945 0.93945,0.81054 1.16992,0.0391 0.85938,0.48047 1.25,0.56054 0.60156,1.28907 -0.41992,0.99023 -0.81055,0.37109 -0.83984,-0.62109 -0.8711,0.66016 0.65039,1.16992 0.10743,1.2207 0.83789,0.90039 0.25,1.11914 0.96484,1.01953 0.33984,1.17969 0.0195,1.91016 0.14062,1.07031 0.64062,1.18945 0.7793,1.29102 0.38086,-1.19922 -0.26562,-1.82031 -0.0156,-1.00977 0.94141,-1.2207 0.95898,-1.82031 1.85938,-1.69922 -1.12891,-1.61133 -0.99414,-0.12891 -0.33594,0.0488 -0.92969,-0.71875 -0.64062,-1.00977 -0.71484,0.85938 -0.35547,-1.72852 0.041,-0.33203 0.0801,-0.58984 1.66016,0.87109 1.07422,0.14844 0.89453,-0.61914 0.80078,-0.17969 0.24023,-0.95117 -0.74023,-1.50976 0.73047,-1.85938 -2.25,-0.31055 -0.52149,-0.97851 1.13672,0.75 0.70313,-1.43946 0.82031,-0.87109 4.09766,-1.34961 0.93359,-0.71094 0.0664,-1.31054 -0.14649,-1.0078202 -0.63086,-0.96093 -0.81054,-0.64063 -1.43946,-0.16992 -1.23047,-0.85938 -0.53906,-1.67968 0.84961,-1.91016 1.46094,-1.62109 1.28906,-0.81055 0.82617,0.30078 1.64453,-1.33984003 0.10742,-0.2304700024216 H 469.9963 L 469.82052,0.09959677 469.80102,-3.2324216e-6 h -1.16796 l -0.041,0.041000002422 -0.89063,0.17969 0.16993,-0.220700002421 z m 27.13086,0 -0.55078,0.7812500024219 -0.16016,1.14062003 0.70899,1.45704 0.88085,-0.63868 1.20704,-1.06836 -0.71094,-1.6718700324219 z m 8.74219,0 -0.27735,0.5996100024219 -1.71094,1.61133003 0.0645,1.88867 0.7207,2.08008 -0.15039,0.94922 -0.86914,0.26171 -0.85156,-0.51171 0.56054,1.31054 0.83985,0.14063 0.83008,-0.5293 1.54101,0.65039 0.98438,-0.0117 1.66406,0.47266 V 1.6767578e-5 Z M 58.980468,0.92186677 l -0.99023,0.31836003 -1.75,-0.2207 -0.81836,0.23047 0.72851,0.83984 1.92969,0.30078 0.24024,1.17969 0.49023,0.99024 0.51953,1.01953 0.79102,0.041 0.25,-0.9707 0.53906,-0.86914 -0.73828,-0.21094 0.42968,-1.06054 -0.0605,-1.0879 z m 379.345702,1.16797003 -0.25585,0.99024 -0.76954,-0.65039 -1.25,0.75 -2.34961,0.79101 -1.81054,1.24024 -0.94922,0.33984 -0.87109,-0.49023 -1.54883,-0.66016 -0.69532,0.88086 -0.75585,0.66992 2.48046,1.75977 -0.98046,-0.21094 -1,-0.66992 0.61132,0.9707 0.97657,0.20899 0.90234,1.02148 -0.83008,0.51953 0.38672,0.9199202 0.7832,0.0391 0.41016,1.27148 0.25,1.08984 -0.0391,1.14844 1.29883,0.85156 0.15039,1.06836 0.31054,1.06055 0.67969,0.83984 -0.58008,-1.50976 0.83008,-0.26953 1.58984,0.33007 0.56055,0.98047 -1.66016,1.53907 1.01954,-0.01 1.39648,0.90039 0.1543,-0.93945 1.97461,0.95898 1.41211,0.41016 1.64257,0.20898 1.46094,0.11133 0.87891,-0.73047 1.14062,-0.0703 0.71485,0.0508 1.41211,-1.99023 0.1289,-1.05078 0.39453,-1.20899 -0.01,-1.32031 -0.64063,-1.25977 0.006,-0.96093 0.8711,0.46093 -0.45704,-1.90039 -1.96093,-2.8906202 -1.50977,-0.51953 0.75977,-0.0996 0.85156,-0.3711 0.21875,-1.61914 -0.24023,-0.91992 -0.87891,-1.41992 -0.88086,-0.58008 0.12109,1.00977 -0.0703,1.21875 -0.0508,1.42187 -1.90234,1.16016 -1.20704,0.69922 0.375,-1.51954 0.24415,-0.99023 0.88085,-0.42969 -0.85937,-0.5 -2.45117,-1.93945 z m -34.41796,4.42969 -0.81641,0.60156 0.64844,2.22852 0.87109,1.3105502 0.45899,-0.16993 -0.41211,-1.2207002 0.20898,-1.03906 -0.90625,-0.75977 z m -238.89649,7.4804702 -1.82031,0.42187 -1.39063,1.25 -1.2207,1.79883 -1,0.68946 -0.98828,0.64062 -0.91016,1.07031 -0.37109,1.33985 -1.08984,1.27929 -0.57032,0.96094 0.83985,0.0586 0.88086,-0.38868 0.75,0.83985 0.76953,0.38867 0.60937,-1 0.83008,-0.14844 1.64063,-0.98047 0.70117,-0.79101 1.19922,-0.59961 0.58007,-1.08008 0.61915,-0.79883 0.85156,-0.74023 -0.54102,-1.00977 -0.24023,-1.16016 0.66992,-1.54101 z m 285.58008,2.82031 -1.11133,1.05078 -0.59961,1.58985 -0.11914,0.91015 -1.03125,1.5293 -1.45898,1.53906 -0.64063,1.35156 -0.5293,1.78907 -0.9707,0.42969 0.83985,0.75976 0.6875,2.23047 2.83203,-6.19922 0.9414,-1.93945 0.33985,-1.06055 z m -22.18359,2.30078 -2.27735,0.86914 0.90625,0.25977 -0.0762,0.92969 0.85938,0.29101 1.45117,-0.13086 0.66992,1.33203 -0.1543,0.94922 -0.86523,-0.88086 -0.35156,0.94922 0.98046,1.35156 1.55078,-0.38085 0.83985,0.31054 0.88476,0.76953 -1.0957,-0.42968 h -1.08008 l 1.16993,0.70898 0.92578,0.16016 1.17578,-0.41992 -0.46094,-2.59961 -0.26953,-0.5 -0.92969,-1.26954 -1.40039,-0.49023 -1.68945,-1.63086 z m 46.6289,0.0195 0.31445,1.31055 -0.10546,1.09961 -0.81446,0.42969 -0.91992,-0.35156 -0.75,0.65234 -0.0156,0.89844 -0.59571,1.10156 1.20117,0.54883 0.88868,-0.15039 0.9414,-1.36914 1.24024,-0.85938 2.85937,0.2793 0.58008,-1.75977 -2.25,-0.81054 -1.51953,-0.0488 z m -71.27539,0.31055 -0.80078,0.95899 -1.49023,3.90039 -0.5,4.15039 0.10546,1.29883 0.29102,-1.09961 -0.0156,-1.75 0.14454,-1 0.79101,-0.50977 1.88477,0.44922 0.79883,-0.45899 2.60546,0.0195 -3.56445,-0.23047 -0.88086,-0.25 -0.48047,-1.74024 0.0508,-1.23828 1.125,-0.91992 -0.33007,-1.05078 0.76562,-0.0293 0.35547,-0.0117 -0.5,-0.27929 z m 32.98438,3.43945 0.15429,0.91993 3.20117,3.48046 1.04883,-0.35156 1.45117,-0.34961 -0.62109,-1.00976 -0.66015,-0.51953 -0.86915,-0.26954 -1.66406,-0.61132 z m 19.47461,0.23829 -3.10352,0.38086 -1.01563,0.82031 -0.24023,1.06054 1.12891,1.42969 0.2207,0.98047 -1.09375,-0.0312 -0.37695,1.30078 1.41015,0.57031 1,0.45899 0.92578,0.18164 2.07422,1.2793 1.15039,0.9707 1.75977,1 1.11133,-0.60938 0.8789,-0.4414 0.93946,-0.23047 2.91015,0.56055 0.82032,-0.29102 0.63085,-1.39062 -0.0508,-1.0879 0.0254,-1.33007 -1.15429,-1.05078 -0.6211,-1.08985 -0.58007,-1.00976 -1.43946,-1.25977 -0.0195,1.16992 -0.96094,0.60938 -0.15039,0.9707 -3.15429,-1.24023 -0.89454,-0.35938 -0.58007,-1.21094 z m -397.150392,2.7207 -0.58008,1.25 0.91015,0.45117 0.29102,-1.34961 z m 345.980462,3.55078 -1.1289,0.22852 -0.81055,1.06054 1.07031,0.70117 1.08985,0.0312 0.75,0.28907 0.63672,-0.90039 -0.16211,-1.06055 z m -349.050782,0.0898 2.1211,2.46094 0.32031,-0.2793 -0.16992,-1.01171 -0.75977,-0.47071 z m 345.941412,1.84961 -0.7832,0.83985 0.69335,1.16015 1.07032,0.20117 z m 89.04883,2.02149 -0.21875,1.04883 -0.49024,2.13085 v 1.17969 l 0.14063,-1.00976 0.53906,-0.99024 0.14062,-1.29883 0.43555,-0.78125 z m 0.54687,0.27929 0.12305,0.0625 v -0.17578 l -0.0293,-0.0371 z m -82.85547,2.17969 -1.21093,0.49024 -0.75,0.91992 0.83984,0.69922 0.99023,-0.97852 z m 45.25977,0.79102 -0.9043,0.1582 -1.22656,2.03125 0.79101,0.48047 1.01563,0.93945 1.45898,0.2793 2.54102,-0.0391 -1.13672,-2.06055 -0.92969,-1.13086 z m -41.16016,0.17968 -2,0.88868 0.18946,1 1.20117,0.0898 1.28906,-1.46875 0.14062,-0.28125 z m -254.26953,8.17969 -2.81055,0.29883 -0.33984,1.15234 -0.31055,1.0293 -0.26953,1.16992 0.0293,1.01953 0.37109,1.35938 0.2793,1.01953 0.67969,1.16016 0.83984,-0.47852 -0.2793,1.09961 0.7793,0.66992 1.79102,-0.41015 1.1289,-0.66993 0.88086,-1.08007 1.03907,-0.41016 0.98046,-0.16016 0.90039,-1.11132 -0.51953,-0.76758 h -0.75976 l -0.82032,0.0781 -0.53124,-0.96875 -0.16993,-0.99023 -0.49023,-1.2793 -0.79883,-1.16016 z m -6.04101,2.62891 0.83007,1 0.51954,1.13086 0.60156,-0.5 -0.26172,-1.24024 z m 310.71093,2.89062 -1.2207,0.44922 -0.0937,0.31055 z m -1.85547,2.44922 -1.3457,0.0312 -0.94336,1.33985 0.9043,0.42968 0.2793,-0.94922 0.13085,0.92969 z m -69.08007,7.14063 0.27539,0.4707 1.17968,-0.17969 z m -2.48438,0.0605 -0.80078,0.16016 -0.5,0.58984 1.10938,0.0996 1.08789,-0.2207 z m -4.03125,0.66016 -0.82226,0.13867 0.10351,0.96094 1.27539,-0.71094 1.38477,0.0918 z m -5.45898,0.84972 -1.03125,0.13086 -0.88868,0.48047 0.75977,0.23828 2.33984,-0.21875 0.90039,-0.32031 z m 17.51562,0.24023 -0.6289,0.57032 0.68359,0.16797 0.76953,-0.35938 z m -23.71094,0.98047 -0.71484,0.31836 4.04688,-0.28906 z m -339.105462,1.41016 -1.39063,0.5 0.85156,0.6582 0.83985,-0.13867 0.38867,-0.64062 z m 335.896482,0.54883 -1.47656,0.38086 0.0703,0.92968 1.5,0.47071 -0.25,-0.99024 1.10938,-0.30078 z m -5.66602,1.66992 -0.26953,0.0312 1.01953,0.70898 z m -4.74023,1.33984 -1.24023,0.38086 -0.45899,1 3.85547,-1.04883 z m -10.35938,0.74024 -0.75976,0.57031 0.77539,0.64062 0.95313,-0.36914 2.46679,0.0176 1.92383,-0.32814 -0.75977,-0.46094 z m -1.7207,0.35156 -2.88476,0.37891 -0.25586,0.17968 -2.93946,0.58985 -0.80468,0.25 -1.04493,0.29101 -0.0508,1.03907 3.28125,-0.94922 1.56446,-0.44922 0.80468,-0.0215 1.29102,-0.55859 z m -10.03906,4.20898 -1.79102,0.29102 -1.33007,1.06836 -0.89454,1 h 0.0156 l 1.08984,-0.0898 2.08985,-1.97071 z m -297.380862,2.73829 1.59961,0.75 0.0312,-0.36719 -0.76172,-0.33008 z m 293.490232,0.9121 -1.21093,0.49024 -0.51953,0.92969 -0.97461,0.7207 -0.97461,1.6582 0.1289,1.67188 0.42578,0.0586 0.89454,0.13086 1.46093,-1.5 0.87891,-1.2793 -0.21875,-0.63086 0.23437,-1.32031 z m 41.81641,14.47071 -0.53906,4.49805 -0.004,0.002 0.53711,-4.49219 z m -7.6875,8.70898 0.90625,2.890633 2.54102,0.7207 3.1289,1.55078 -0.4082,2.89844 -0.006,0.0215 0.4082,-2.89257 -3.1289,-1.54883 -2.54102,-0.72071 -0.91015,-2.900393 z m 0.58008,14.183603 0.40625,3.26562 -0.006,0.0254 -0.41016,-3.28515 z m -61.09961,6.98632 -0.75977,0.41016 -0.15039,1.0293 1.53125,0.59179 0.91992,-0.60156 1.14454,0.85156 0.53515,1.14844 1.12696,0.67969 1.90234,-0.12891 0.93555,-0.62109 -1.1543,-1.10938 -1.05469,-1.51953 -2.6289,-0.62109 z m 44.44141,3.75391 3.00586,3.31445 0.68164,1.97852 1.86914,3.04101 -0.008,0.0332 -1.86914,-3.04102 -0.68554,-1.98047 -3.00586,-3.31836 z m -141.56055,14.8457 -0.81055,0.1211 1.09961,0.82031 z m -6.91992,0.0801 -1.00977,0.24024 -1.35156,1.06054 -2.17969,0.11914 -0.90039,0.56055 -0.62891,0.81055 1.51954,-0.22071 0.81054,0.70899 2.43946,2.51172 h 3.04101 l 0.25977,-1.17969 0.84961,-0.70117 1.1289,-0.21875 0.0117,-1.1211 -0.63086,-0.77929 z m 145.48047,7.43946 2.1875,2.40624 1.75976,3.31641 -0.0156,0.0215 -1.75196,-3.30274 -2.21093,-2.43164 z m 1.96289,8.50195 0.38867,1.03515 2.0664,1.66993 1.47852,2.83984 -0.19922,2.72852 2.82031,1.71093 0.35547,2.85742 0.25,2.78907 -0.01,0.008 -0.24805,-2.75977 -0.35547,-2.85937 -2.82031,-1.71094 0.19922,-2.73047 -1.48242,-2.83984 -2.06641,-1.66992 -0.39063,-1.04883 z m -170.54297,14.25 -0.97071,0.25 1.00977,0.0195 z m 173.11718,4.17578 -0.24609,1.21094 0.24414,-1.20899 z m -181.31835,1.46287 -0.93946,0.36914 -0.45117,0.10156 -1.05859,0.72852 -0.91016,0.55078 1.7793,0.72852 0.83008,-0.0176 0.48046,-1.34961 z m 180.34375,4.16211 1.41015,3.23047 1.97071,2.75976 2.11914,1.60938 2.16992,0.52148 -0.0215,0.0332 -2.15234,-0.51563 -2.11914,-1.61133 -1.9707,-2.75976 -1.41016,-3.23047 z m -175.44336,4.98828 -0.54102,0.94922 -0.23828,1.39062 0.93945,0.01 0.81055,-0.21875 1.08008,0.70898 0.95898,0.33985 0.82031,-0.8086 -0.83007,-1.55078 -0.25977,-0.35937 -0.82031,-0.0723 -0.83008,-0.20898 z m 308.03125,1.60547 0.006,0.0156 -1.47657,3.28907 -0.004,-0.0234 z m -128.92579,9.75586 0.1875,2.43555 0.19922,0.12109 2.91016,0.75976 1.52148,2.89454 1.25,2.98828 1.1836,2.75 2.23828,0.95898 2.30078,-1.85156 2.11914,2.89844 2.5,0.14062 2.69727,0.49024 2.67187,-1.97071 2.38086,2.50977 2.23828,1.31055 2.31836,0.73046 2.74024,0.1875 4.89062,1.83985 1.4707,0.72265 -0.0176,0.0371 -1.45703,-0.71484 -4.88868,-1.83984 -2.74023,-0.18946 -2.32422,-0.73047 -2.23633,-1.31054 -2.38476,-2.50977 -2.66993,1.9707 -2.69531,-0.49023 -2.5,-0.14062 -2.11914,-2.89844 -2.30075,1.84962 -2.24023,-0.96094 -1.1836,-2.75 -1.25,-2.99023 -1.51562,-2.89063 -2.91016,-0.75781 -0.20312,-0.1211 -0.1875,-2.45117 z m -243.35546,2.04883 -0.96094,0.30859 0.77148,0.60938 1.24024,-0.18946 -0.20117,-0.48828 z m 272.16992,29.95507 -0.19531,1.54688 0.1914,-1.54102 z m -240.07031,12.23438 0.18945,1.03125 -0.0801,1.03906 1.38086,0.86914 1.65039,0.45117 0.61914,-0.91992 -0.87891,-0.25976 -0.65039,-0.99024 -1.33007,-1.18945 z m 234.69726,2.88281 0.60547,3.71485 -0.006,0.0176 -0.60937,-3.71484 z m -1.25586,9.67188 0.0684,2.65039 0.55078,3.26172 1.58008,0.46093 2.10156,0.61915 2.5918,-0.79102 2.75977,0.27148 2.32031,0.52149 2.78906,-1.47266 2.35156,-0.35351 2.30078,1.52148 3.00196,-0.52148 0.0332,0.0371 -3.04101,0.52929 -2.29883,-1.51758 -2.34961,0.34766 -2.79102,1.4707 -2.32031,-0.51953 -2.75977,-0.26953 -2.58984,0.78906 -2.09961,-0.61914 -1.58008,-0.46093 -0.55078,-3.25977 -0.0723,-2.67969 z m 33.77149,0.28906 2.92968,1.48633 3.15039,2.72265 2.90821,0.83985 2.97851,2.21094 2.64258,1.32031 1.4375,-1.31445 2.32031,1.76171 2.27735,1.8418 1.60351,2.9082 2.70899,0.19922 -0.002,0.041 -2.70703,-0.20117 -1.60547,-2.91016 -2.27539,-1.83984 -2.32031,-1.75977 -1.44336,1.31055 0.0547,0.0293 -0.24024,0.15039 -2.16992,1.34961 -0.90039,0.12891 -0.14062,0.0215 -1.42969,0.19922 -2.42969,-2.6289 -3.79101,-2.54102 -0.45313,-1.57031 -0.77539,0.2207 -2.83008,-0.26953 -1.63086,1.31836 0.01,-1.47852 -2.46875,-0.24023 -2.5,0.15039 -1.21094,-2.81055 -2.28906,0.23829 -2.32031,1.11132 -0.47071,1.52539 -0.002,-0.002 0.47852,-1.56836 2.32031,-1.10937 2.28906,-0.23633 1.21094,2.8125 2.5,-0.15039 2.46875,0.24023 v -1.21094 l 2.65039,0.5293 -1.0293,0.8418 2.83008,0.26953 0.77734,-0.22266 -0.34179,-1.1875 z m -248.28321,1.87695 0.41993,1.81055 0.90039,0.33789 0.83984,1.27148 0.51953,1.03907 0.2207,-1.04883 -0.90039,-1.25 -0.17968,-0.30078 0.20117,-1.24024 -0.78125,-0.47851 z m 311.1543,4.14258 4.98437,0.0801 -0.002,0.0273 -4.98633,-0.0801 -3.72461,0.97852 -2.71484,-0.12891 -2.33008,2.66016 -2.54101,0.0996 -2.28907,2.32031 -2.43945,0.24024 -2.38086,1.30859 -2.73047,-1.34766 -2.53906,-3.14062 -2.28516,0.11914 -4.67578,0.0391 -2.3789,-1.13476 -0.01,-0.0391 2.38867,1.14258 4.68164,-0.041 2.2793,-0.11914 2.53906,3.14062 2.73047,1.35352 2.38086,-1.3125 2.4375,-0.23633 2.29102,-2.32031 2.53906,-0.10157 2.33008,-2.6582 2.7207,0.13086 z m -32.33789,4.95703 0.004,0.0195 -0.75977,2.94922 -2.30273,2.54102 -2.6211,0.24023 0.002,-0.0391 2.61915,-0.23828 2.30078,-2.53906 z m -282.08594,0.15821 1.66992,1.20117 -0.84961,-1.04883 z m 318.81055,11.93164 v 0.0176 l -3.74805,1.33594 -2.63086,1.51172 -3.05078,0.10938 -2.43945,-0.16993 -2.79883,0.25 -2.89258,0.23828 -3.43945,1.03907 -1.79883,2.96093 -2.33008,3.02735 -2.71094,-0.14063 -2.32031,-1.66015 -2.41992,-1.02735 -3.86914,-0.0391 -0.80078,2.10547 -0.43945,2.68945 1.40039,2.91992 -0.97071,2.21094 -2.40039,0.25 -0.008,-0.008 2.39844,-0.25 0.96875,-2.21094 -1.40039,-2.91992 0.4414,-2.68945 0.79883,-2.11133 3.87109,0.041 2.41993,1.0293 2.32031,1.66016 2.70898,0.14062 2.33008,-3.03125 1.80078,-2.96093 3.43555,-1.03907 2.89453,-0.24023 2.79883,-0.25 2.43555,0.16992 3.05468,-0.10937 2.63105,-1.50956 z m 0.38867,5.375 2.74609,0.98632 v 0.006 l -2.74414,-0.98242 z m -303.67969,0.82617 0.92969,1.57812 1.58008,0.15039 1.93164,1.71094 0.96875,0.33984 0.17969,0.18946 0.11132,-1.2793 -2.62109,-1.12109 -1.18945,-0.39844 -0.86914,-0.80273 0.88867,0.1914 z m 2.38086,6.81836 0.33008,1.18164 0.0391,1.09961 0.13086,0.92968 0.81055,1.04883 1.08984,1.67188 0.44922,2.07812 1.11914,-1.00976 0.3711,-1.31836 -0.69922,-1.06055 -0.0508,-0.51953 -0.0606,-1.16211 -0.88867,-0.72852 -1.27149,-1.5 z m 256.68946,2.18945 2.27539,0.0215 0.006,0.006 -2.26954,-0.0195 -1.51953,2.88867 -0.14648,2.78126 -0.0156,-0.008 0.15039,-2.77929 z m -18.60938,4.3418 2.51953,0.54883 0.006,0.0117 -2.51172,-0.54882 -0.0996,2.91992 0.16993,2.72265 -1.99024,3.35743 -2.4707,2.69922 -1.69922,2.89062 0.0488,2.94922 0.70117,2.83008 -2.9375,0.16015 -0.002,-0.0137 2.92578,-0.1582 -0.70117,-2.83008 -0.0488,-2.94922 1.69922,-2.89062 2.4707,-2.69922 1.99023,-3.36133 -0.16992,-2.71875 z m -20.46094,1 0.0117,0.0156 -2.31445,2.81641 -3.25,3.71875 0.14648,3.49023 -2.34961,3.11914 -2.52148,1.39649 -2.70899,1.97461 -3.01953,-1.64453 -3.14453,0.21093 -2.5,1.22852 -2.71094,0.0664 -2.72851,0.97851 -0.006,-0.004 2.72656,-0.97851 2.70899,-0.0684 2.5,-1.23047 3.14062,-0.21094 0.0137,0.008 3.00586,1.63086 2.71094,-1.96875 2.51953,-1.39844 2.34961,-3.1211 -0.1543,-3.49023 3.25,-3.71875 z m 39.95117,1.7207 0.0137,0.008 -1,2.64063 0.5,2.86914 -0.0137,-0.01 -0.5,-2.86914 z m -5.38085,0.98828 0.008,0.01 -2.44336,0.91797 -2.5586,1.64257 -3.07031,-0.23828 -0.008,-0.0117 3.0625,0.23829 2.56055,-1.63868 z m -32.81641,3.51172 2.4375,2.07813 0.0137,0.0137 z m 5.48633,5.07813 2.59961,0.12109 -0.002,0.0117 -2.58398,-0.11914 z m 2.10351,3.42187 2.36719,1.9375 v 0.002 z m -39.33593,0.97852 0.006,0.004 -1.24804,1.72852 -2.73438,0.7793 -1.55468,2.57031 2.09375,2.78906 1.51953,2.93164 1.55078,3.03906 2.72265,2.60938 -1.35351,2.68945 -0.47852,2.75977 -2.82031,0.94922 -2.70898,2.45117 -0.008,-0.004 2.70703,-2.44726 2.82032,-0.94922 0.47851,-2.75977 1.34571,-2.68945 -2.71485,-2.61133 -1.55078,-3.03906 -1.51953,-2.92969 -2.09375,-2.79102 1.55469,-2.57031 2.73633,-0.7793 z m 119.97265,15.55078 -0.41992,0.6289 -0.51953,1.08008 -0.12109,0.7793 1.16992,-2.41797 0.95117,0.0391 z m -127.58008,8.84961 0.01,0.004 -2.18164,2.69532 1.97851,2.74023 0.97071,3.15039 3.5,0.97852 1.65039,2.93945 0.52734,2.83008 -1.72851,1.39453 1.71875,-1.39258 -0.52539,-2.83008 -1.65039,-2.93945 -3.5,-0.98047 -0.96876,-3.15039 -1.98437,-2.74023 z m 3.93946,17.36914 -2.27149,3.59765 0.76953,2.86914 0.87891,3.63086 2.52148,2 2.52539,1.23633 2.84376,1.80469 2.52734,1.09961 -0.004,0.002 -2.53515,-1.09961 -2.83789,-1.79883 -2.52735,-1.24023 -2.51953,-2 -0.88086,-3.63086 -0.76953,-2.86914 z m 16.20508,14.74804 0.68945,3.5 -1.97461,2.88086 1.9707,-2.8789 -0.68945,-3.5 z m 111.30078,5.37305 -1.50586,1.79883 2.00586,1.5 -2.00977,-1.5 z m -326.47461,3.56836 0.01,0.0137 -2.77734,0.5293 -0.0137,-0.0117 z m 3.33984,6.01172 2.35938,2.55859 2.83984,1.75977 2.29101,1.66992 2.68946,0.8418 2.44922,0.25 2.1914,3.43945 2.5,1.71094 2.50977,0.91015 2.90039,-0.93164 3.2793,1.63086 0.91015,2.76953 2.34961,1.15039 3.35938,-0.4414 2.43164,0.4707 2.75,0.13086 2.92968,1.41016 4.21876,-1.98242 2.04101,-2.38868 2.96875,1.41016 2.87109,1.40039 2.45704,0.57813 2.32226,2.14062 3.79102,1.31055 1.29883,3.09179 v 0.008 l -1.29688,-3.08203 -3.78906,-1.3125 -2.32032,-2.14258 -2.45703,-0.57813 -2.86914,-1.40039 -2.9707,-1.41015 -2.04102,2.39453 -4.22265,1.97851 -2.92969,-1.4082 -2.75,-0.13086 -2.42969,-0.4707 -3.35937,0.43945 -2.35156,-1.14844 -0.91016,-2.77148 -3.2793,-1.63281 -2.89843,0.93164 -2.51172,-0.90821 -2.5,-1.70898 -2.1875,-3.43945 -2.44922,-0.25 -2.69141,-0.8418 -2.28906,-1.66992 -2.83985,-1.76172 -2.35742,-2.5625 -2.73828,1.90039 0.002,-0.0195 z m -160.589845,7.4043 2.431641,1.60937 3.511718,0.91992 2.369141,1.98047 2.619141,1.19922 2.710937,-0.37109 2.644531,-0.48438 -0.002,0.004 -2.660156,0.48828 -2.708985,0.36914 -2.621093,-1.19922 -2.369141,-1.98047 -3.509766,-0.91992 -2.427734,-1.60742 z m 17.523433,2.15234 2.44727,1.13086 2.67187,0.44922 2.57813,1.08008 2.89453,1.05078 3.72852,0.46094 0.22851,3.13867 -1.47851,2.93359 1.73828,3.13086 2.54101,0.64062 2.99024,3.39454 -2.32031,1.53906 -1.38086,2.02734 -3.04883,1.8418 -2.73047,1.1875 h -0.006 l 2.71484,-1.18359 3.05078,-1.83985 1.38282,-2.0293 2.3164,-1.53906 -2.99023,-3.39062 -2.53711,-0.64258 -1.73828,-3.13086 1.47851,-2.93164 -0.22851,-3.14063 -3.73047,-0.46093 -2.89063,-1.05274 -2.58007,-1.07812 -2.66993,-0.44922 -2.4375,-1.125 z m 319.886722,9.98242 -1.43554,0.36133 0.94531,0.63867 0.66015,-0.92969 z m 85.0293,0.85156 -1.13477,0.88868 1.19532,0.0605 -0.0254,-0.90039 z m -9.85938,1.47852 -1.40039,0.16992 -0.4707,1.23047 0.30664,1.0293 -0.47656,0.9707 -0.10938,1.09961 -0.65039,1.16992 0.69532,1.00977 -0.0645,1.16992 -0.14453,1.62891 -0.85547,1.4414 -0.64453,-1.09961 -1.8789,-0.79883 -1.02735,-0.0723 -2.11914,1.6914 -0.83984,0.99024 -2.66016,0.5293 -1.52148,0.75976 -0.88868,0.0293 -0.16992,1.11133 -0.9414,0.30078 -0.85938,-0.13281 -0.17969,1.11132 -0.875,0.29102 -0.51562,1.1582 0.0312,1.04102 -0.26563,0.91015 -0.875,0.20899 -0.39062,0.91211 -0.90234,0.16992 -0.0469,1.11914 1.26953,-0.16016 -0.32031,0.95899 1.70117,1.02148 -0.51562,0.96875 -0.96485,0.16016 -1.2207,0.31055 0.12109,1.15039 -0.0234,1.08007 0.58789,1.01954 0.91211,0.42968 1.41211,0.63086 0.81054,1.25782 0.33985,0.90234 -1.29883,0.56836 -0.39063,0.93164 -1.99414,0.83008 0.75,1.25 -0.11523,0.93945 1.79883,-0.37891 1.33984,-0.59179 0.89062,0.15039 0.50977,0.91015 -0.42969,1.03125 -0.16406,1.07813 -1.16602,0.92187 -0.35937,1.0293 -1.20117,0.5293 1.21093,0.78906 1,-0.35937 0.67969,0.96875 1.14063,0.13281 1.50976,0.45898 -0.45117,1.21094 -1.50976,0.75781 -1.00977,1.30078 0.31055,0.97071 1.00976,0.34961 0.95899,0.89062 1.03125,0.70899 1.41992,0.41992 0.85937,0.41992 1.38086,-0.0898 0.87891,1.10156 -0.23438,1.33789 1.38477,0.40038 0.98047,0.7207 0.87891,-0.3711 0.41015,-1.01951 -0.86914,0.18164 0.006,-1.07227 1.08398,-0.71875 0.51954,-1.14062 -0.26954,-1 1.08008,-0.85938 1.00586,-0.73047 -1.40625,-0.34961 0.01,-1.10937 0.99023,0.0801 0.9707,-0.66016 0.18555,-0.91992 0.51367,-1.03125 0.0508,-2.33984 -0.19335,-2.17969 0.22265,-2.21094 0.0195,-1.12891 2.16016,-3.01171 0.63086,-1.18946 0.87891,-1.13867 -0.0488,-1.57031 0.18945,-3.96875 -0.5293,-1.88281 -0.0898,-1.25782 0.17969,-0.93945 -0.1543,-1.0918 -0.0801,-0.96093 0.0742,-1.85938 -0.32422,-1.16992 -0.67578,-1.00977 0.44922,1.03907 -0.91016,-0.22852 -0.20898,-1.05078 -0.36524,-0.91797 0.0957,-1.08203 0.80859,-3.81836 0.0508,-0.96094 -0.42969,-2.91992 -0.15039,-0.91992 0.125,-0.96094 z m 23.08985,4.77148 -0.42969,1.16797 -1.15039,0.84961 -1.03516,-0.6289 -1.10546,0.7207 -1.24024,-0.43164 -1.34961,0.16211 -0.61914,1.73828 0.95899,0.64062 1.96093,0.0606 0.84961,-0.30078 0.91992,-0.49023 1.10938,0.13085 0.7207,1.0586 h 1.16992 l -0.55078,-1.11914 0.52149,-0.96875 0.01,-0.91211 0.29883,-0.93945 z m -212.18359,1.2129 3.5625,1.93554 2.50585,-1.2207 2.43555,1.16211 2.56445,1.50781 0.006,0.0137 -2.56445,-1.50586 -2.42969,-1.16015 -2.51367,1.21875 -3.5664,-1.9375 z m -197.994152,5.57226 h 0.0176 l -2.91601,3.53711 -2.18164,1.6875 -2.79883,1.25 0.35547,3.33008 0.45117,3.67969 -0.64063,3.02929 -0.35937,3.64258 -0.56055,3.0918 -1.521482,2.60547 0.36914,3.68359 -2.990234,1.88086 -0.02148,0.004 2.990235,-1.88086 -0.369141,-3.6836 1.519527,-2.60742 0.5625,-3.0918 0.35547,-3.64062 0.64453,-3.0293 -0.44921,-3.67969 -0.36133,-3.33007 2.80078,-1.25 2.18359,-1.68946 z m 402.894542,1.96484 -0.92774,0.20704 1.01563,0.39062 z m 19.19335,6.54883 0.33008,1.95117 0.21875,-0.9707 z m -437.732419,23.50586 -0.607422,2.60352 2.146485,2.71875 -0.310547,3.48046 -1.189453,2.8418 -2.146485,2.3809 -1.289062,3.4687 h -0.02539 l 1.289063,-3.4648 2.15039,-2.3809 1.1875,-2.8398 0.3125,-3.4805 -2.15039,-2.72071 0.611328,-2.60156 z m 397.232419,12.61333 -1.00976,0.4003 -0.20117,1.8692 -0.53907,1 -1.19335,0.539 -1.66797,0.1817 -0.83985,1 -1.08984,1.0293 -0.83008,1.0098 -0.92969,0.7695 -0.89257,1.4609 -1.85743,1.5 -1.33984,-0.2402 -1.67969,0.7402 -0.57031,0.959 -2.41016,1.2012 -1.03906,0.01 -1.37109,-0.4296 -2.71875,-0.4395 -1.84571,-1.9395 0.082,-1.1601 -0.60743,-0.9297 -0.68945,0.9395 0.65039,1 0.10547,1.0507 -2.0957,4.8203 0.95898,1.0391 0.25,1.291 -1.11914,0.9785 0.13477,1.0215 0.3457,0.9492 0.38867,-1.3613 0.98047,-0.1484 -0.5293,1.0683 1.76953,-0.4589 1.08008,0.5293 0.26953,1.5097 0.60743,0.9199 0.72265,1.0918 0.33008,1.4395 -0.30273,1.6504 0.58789,1.0996 1.05273,0.6094 h 30.39649 l 0.41601,-0.6993 1.19922,-0.7714 0.71094,-1.5899 0.54883,-0.8984 0.29101,-1.1817 0.35938,-1.1796 -0.83985,-0.8692 -0.75,-0.9805 -0.32031,-2.539 -0.83008,-1.9199 -0.24023,-1.0313 -0.68946,-0.9297 0.34961,-0.8984 0.52149,-0.9512 -0.96094,-0.3906 -1.41016,-1.1094 0.22071,-0.959 -1.21094,0.5391 -1.08008,-0.4102 1.03125,-0.5 0.28906,-1.4297 0.90039,-0.5996 1.04493,-0.1211 -1.13477,-0.539 -1.04101,0.3183 -1.16993,-0.6796 0.36133,-1.961 0.58008,-0.9277 -0.91992,-0.3809 -1.06055,-0.4101 -0.66992,1.0703 -0.50977,-0.9199 -0.38086,-0.9903 -1.57031,-1.1484 -0.95898,0.1777 -0.91016,-0.3594 -0.41016,-1.1894 z m 5.21876,0.1 -1.03907,0.5507 1.23047,0.6309 -0.11133,-0.2422 z m 1.15039,0.58 -0.66016,0.9922 0.39062,1.0293 0.36915,-1.4121 z m -27.98047,3.1016 -1.0293,0.5898 -0.24023,1.1797 -1.16016,0.8711 -0.29883,1.1699 0.83984,-1.2207 0.58985,-0.4199 1.41015,-0.2011 0.25,-1.0586 z" />
</svg>
